Raleway-ExtraLight-OTF.ufo
<glyph name="ampersand" format="1">
  <advance width="644"/>
  <unicode hex="0026"/>
  <outline>
    <contour>
      <point x="635" y="0" type="line"/>
      <point x="510" y="129" type="line"/>
      <point x="548" y="190"/>
      <point x="570" y="264"/>
      <point x="570" y="340" type="curve"/>
      <point x="539" y="340" type="line"/>
      <point x="539" y="272"/>
      <point x="521" y="206"/>
      <point x="489" y="151" type="curve"/>
      <point x="262" y="388" type="line"/>
      <point x="350" y="448"/>
      <point x="431" y="506"/>
      <point x="431" y="588" type="curve" smooth="yes"/>
      <point x="431" y="661"/>
      <point x="366" y="719"/>
      <point x="277" y="719" type="curve" smooth="yes"/>
      <point x="181" y="719"/>
      <point x="107" y="650"/>
      <point x="107" y="571" type="curve" smooth="yes"/>
      <point x="107" y="522"/>
      <point x="135" y="477"/>
      <point x="216" y="392" type="curve"/>
      <point x="127" y="332"/>
      <point x="51" y="272"/>
      <point x="51" y="174" type="curve" smooth="yes"/>
      <point x="51" y="57"/>
      <point x="158" y="-10"/>
      <point x="271" y="-10" type="curve" smooth="yes"/>
      <point x="363" y="-10"/>
      <point x="439" y="35"/>
      <point x="491" y="103" type="curve"/>
      <point x="590" y="0" type="line"/>
    </contour>
    <contour>
      <point x="275" y="19" type="curve" smooth="yes"/>
      <point x="186" y="19"/>
      <point x="85" y="69"/>
      <point x="85" y="172" type="curve" smooth="yes"/>
      <point x="85" y="258"/>
      <point x="154" y="315"/>
      <point x="236" y="371" type="curve"/>
      <point x="471" y="124" type="line"/>
      <point x="425" y="60"/>
      <point x="357" y="19"/>
    </contour>
    <contour>
      <point x="140" y="571" type="curve" smooth="yes"/>
      <point x="140" y="636"/>
      <point x="199" y="689"/>
      <point x="277" y="689" type="curve" smooth="yes"/>
      <point x="347" y="689"/>
      <point x="399" y="645"/>
      <point x="399" y="586" type="curve" smooth="yes"/>
      <point x="399" y="519"/>
      <point x="337" y="474"/>
      <point x="241" y="409" type="curve"/>
      <point x="157" y="498"/>
      <point x="140" y="536"/>
    </contour>
  </outline>
</glyph>
<glyph name="parenright" format="1">
  <advance width="243"/>
  <unicode hex="0029"/>
  <outline>
    <contour>
      <point x="196" y="345" type="curve" smooth="yes"/>
      <point x="196" y="481"/>
      <point x="135" y="605"/>
      <point x="61" y="730" type="curve"/>
      <point x="34" y="714" type="line"/>
      <point x="96" y="624"/>
      <point x="164" y="465"/>
      <point x="164" y="342" type="curve" smooth="yes"/>
      <point x="164" y="240"/>
      <point x="116" y="106"/>
      <point x="35" y="-13" type="curve"/>
      <point x="61" y="-29" type="line"/>
      <point x="146" y="97"/>
      <point x="196" y="223"/>
    </contour>
  </outline>
</glyph>
<glyph name="three" format="1">
  <advance width="525"/>
  <unicode hex="0033"/>
  <outline>
    <contour>
      <point x="318" y="236" type="curve"/>
      <point x="405" y="247"/>
      <point x="460" y="312"/>
      <point x="460" y="396" type="curve" smooth="yes"/>
      <point x="460" y="500"/>
      <point x="374" y="576"/>
      <point x="257" y="576" type="curve" smooth="yes"/>
      <point x="164" y="576"/>
      <point x="83" y="527"/>
      <point x="55" y="453" type="curve"/>
      <point x="80" y="436" type="line"/>
      <point x="107" y="501"/>
      <point x="174" y="544"/>
      <point x="255" y="544" type="curve" smooth="yes"/>
      <point x="353" y="544"/>
      <point x="425" y="484"/>
      <point x="425" y="390" type="curve" smooth="yes"/>
      <point x="425" y="305"/>
      <point x="363" y="252"/>
      <point x="250" y="252" type="curve" smooth="yes"/>
      <point x="226" y="252" type="line"/>
      <point x="226" y="221" type="line"/>
      <point x="249" y="221" type="line" smooth="yes"/>
      <point x="367" y="221"/>
      <point x="438" y="156"/>
      <point x="438" y="52" type="curve" smooth="yes"/>
      <point x="438" y="-50"/>
      <point x="367" y="-115"/>
      <point x="256" y="-115" type="curve" smooth="yes"/>
      <point x="165" y="-115"/>
      <point x="95" y="-71"/>
      <point x="71" y="-5" type="curve"/>
      <point x="44" y="-23" type="line"/>
      <point x="75" y="-99"/>
      <point x="155" y="-147"/>
      <point x="255" y="-147" type="curve" smooth="yes"/>
      <point x="383" y="-147"/>
      <point x="472" y="-67"/>
      <point x="472" y="50" type="curve" smooth="yes"/>
      <point x="472" y="148"/>
      <point x="411" y="223"/>
    </contour>
  </outline>
</glyph>
<glyph name="question" format="1">
  <advance width="470"/>
  <unicode hex="003F"/>
  <outline>
    <contour>
      <point x="202" y="186" type="line"/>
      <point x="202" y="297"/>
      <point x="237" y="324"/>
      <point x="281" y="348" type="curve" smooth="yes"/>
      <point x="351" y="386"/>
      <point x="432" y="414"/>
      <point x="432" y="531" type="curve" smooth="yes"/>
      <point x="432" y="656"/>
      <point x="340" y="719"/>
      <point x="243" y="719" type="curve" smooth="yes"/>
      <point x="159" y="719"/>
      <point x="72" y="673"/>
      <point x="35" y="590" type="curve"/>
      <point x="61" y="576" type="line"/>
      <point x="94" y="643"/>
      <point x="166" y="688"/>
      <point x="243" y="688" type="curve" smooth="yes"/>
      <point x="323" y="688"/>
      <point x="401" y="640"/>
      <point x="401" y="534" type="curve" smooth="yes"/>
      <point x="401" y="424"/>
      <point x="317" y="400"/>
      <point x="257" y="368" type="curve" smooth="yes"/>
      <point x="205" y="340"/>
      <point x="171" y="302"/>
      <point x="171" y="186" type="curve"/>
    </contour>
    <contour>
      <point x="203" y="0" type="line"/>
      <point x="203" y="91" type="line"/>
      <point x="171" y="91" type="line"/>
      <point x="171" y="0" type="line"/>
    </contour>
  </outline>
</glyph>
<glyph name="at" format="1">
  <advance width="832"/>
  <unicode hex="0040"/>
  <outline>
    <contour>
      <point x="414" y="603" type="curve" smooth="yes"/>
      <point x="225" y="603"/>
      <point x="49" y="450"/>
      <point x="49" y="230" type="curve" smooth="yes"/>
      <point x="49" y="17"/>
      <point x="213" y="-146"/>
      <point x="411" y="-146" type="curve" smooth="yes"/>
      <point x="467" y="-146"/>
      <point x="522" y="-133"/>
      <point x="575" y="-106" type="curve"/>
      <point x="564" y="-84" type="line"/>
      <point x="516" y="-109"/>
      <point x="465" y="-122"/>
      <point x="412" y="-122" type="curve" smooth="yes"/>
      <point x="224" y="-122"/>
      <point x="74" y="34"/>
      <point x="74" y="230" type="curve" smooth="yes"/>
      <point x="74" y="433"/>
      <point x="235" y="579"/>
      <point x="414" y="579" type="curve" smooth="yes"/>
      <point x="599" y="579"/>
      <point x="748" y="421"/>
      <point x="748" y="223" type="curve" smooth="yes"/>
      <point x="748" y="142"/>
      <point x="723" y="9"/>
      <point x="633" y="9" type="curve" smooth="yes"/>
      <point x="588" y="9"/>
      <point x="580" y="44"/>
      <point x="580" y="103" type="curve" smooth="yes"/>
      <point x="580" y="249" type="line" smooth="yes"/>
      <point x="580" y="347"/>
      <point x="563" y="451"/>
      <point x="427" y="451" type="curve" smooth="yes"/>
      <point x="367" y="451"/>
      <point x="314" y="430"/>
      <point x="268" y="399" type="curve"/>
      <point x="281" y="376" type="line"/>
      <point x="323" y="406"/>
      <point x="374" y="424"/>
      <point x="424" y="424" type="curve" smooth="yes"/>
      <point x="527" y="424"/>
      <point x="554" y="350"/>
      <point x="554" y="244" type="curve"/>
      <point x="531" y="252"/>
      <point x="480" y="267"/>
      <point x="421" y="267" type="curve" smooth="yes"/>
      <point x="334" y="267"/>
      <point x="238" y="237"/>
      <point x="238" y="140" type="curve" smooth="yes"/>
      <point x="238" y="64"/>
      <point x="296" y="10"/>
      <point x="386" y="10" type="curve" smooth="yes"/>
      <point x="455" y="10"/>
      <point x="518" y="43"/>
      <point x="553" y="82" type="curve"/>
      <point x="558" y="28"/>
      <point x="567" y="-16"/>
      <point x="631" y="-16" type="curve" smooth="yes"/>
      <point x="761" y="-16"/>
      <point x="772" y="164"/>
      <point x="772" y="222" type="curve" smooth="yes"/>
      <point x="772" y="438"/>
      <point x="611" y="603"/>
    </contour>
    <contour>
      <point x="482" y="59" type="curve" smooth="yes"/>
      <point x="457" y="47"/>
      <point x="421" y="37"/>
      <point x="386" y="37" type="curve" smooth="yes"/>
      <point x="322" y="37"/>
      <point x="266" y="75"/>
      <point x="266" y="140" type="curve" smooth="yes"/>
      <point x="266" y="218"/>
      <point x="342" y="242"/>
      <point x="416" y="242" type="curve" smooth="yes"/>
      <point x="488" y="242"/>
      <point x="537" y="219"/>
      <point x="553" y="218" type="curve"/>
      <point x="553" y="173" type="line" smooth="yes"/>
      <point x="553" y="134"/>
      <point x="545" y="89"/>
    </contour>
  </outline>
</glyph>
<glyph name="K" format="1">
  <advance width="627"/>
  <unicode hex="004B"/>
  <outline>
    <contour>
      <point x="319" y="0" type="move" name="bottom"/>
    </contour>
    <contour>
      <point x="131" y="0" type="line"/>
      <point x="131" y="220" type="line"/>
      <point x="285" y="378" type="line"/>
      <point x="581" y="0" type="line"/>
      <point x="622" y="0" type="line"/>
      <point x="309" y="399" type="line"/>
      <point x="608" y="710" type="line"/>
      <point x="565" y="710" type="line"/>
      <point x="131" y="263" type="line"/>
      <point x="131" y="710" type="line"/>
      <point x="96" y="710" type="line"/>
      <point x="96" y="0" type="line"/>
    </contour>
  </outline>
</glyph>
<glyph name="R" format="1">
  <advance width="645"/>
  <unicode hex="0052"/>
  <outline>
    <contour>
      <point x="316" y="710" type="move" name="top"/>
    </contour>
    <contour>
      <point x="319" y="0" type="move" name="bottom"/>
    </contour>
    <contour>
      <point x="131" y="0" type="line"/>
      <point x="131" y="274" type="line"/>
      <point x="379" y="274" type="line"/>
      <point x="555" y="0" type="line"/>
      <point x="595" y="0" type="line"/>
      <point x="417" y="278" type="line"/>
      <point x="520" y="289"/>
      <point x="591" y="385"/>
      <point x="591" y="493" type="curve" smooth="yes"/>
      <point x="591" y="600"/>
      <point x="506" y="710"/>
      <point x="388" y="710" type="curve" smooth="yes"/>
      <point x="96" y="710" type="line"/>
      <point x="96" y="0" type="line"/>
    </contour>
    <contour>
      <point x="131" y="678" type="line"/>
      <point x="387" y="678" type="line" smooth="yes"/>
      <point x="481" y="678"/>
      <point x="557" y="589"/>
      <point x="557" y="493" type="curve" smooth="yes"/>
      <point x="557" y="399"/>
      <point x="494" y="306"/>
      <point x="394" y="306" type="curve" smooth="yes"/>
      <point x="131" y="306" type="line"/>
    </contour>
  </outline>
</glyph>
<glyph name="T" format="1">
  <advance width="603"/>
  <unicode hex="0054"/>
  <outline>
    <contour>
      <point x="302" y="707" type="move" name="top"/>
    </contour>
    <contour>
      <point x="302" y="0" type="move" name="bottom"/>
    </contour>
    <contour>
      <point x="585" y="710" type="line"/>
      <point x="18" y="710" type="line"/>
      <point x="18" y="678" type="line"/>
      <point x="284" y="678" type="line"/>
      <point x="284" y="0" type="line"/>
      <point x="319" y="0" type="line"/>
      <point x="319" y="678" type="line"/>
      <point x="585" y="678" type="line"/>
    </contour>
  </outline>
</glyph>
<glyph name="Z" format="1">
  <advance width="625"/>
  <unicode hex="005A"/>
  <outline>
    <contour>
      <point x="330" y="707" type="move" name="top"/>
    </contour>
    <contour>
      <point x="29" y="0" type="line"/>
      <point x="592" y="0" type="line"/>
      <point x="592" y="32" type="line"/>
      <point x="72" y="32" type="line"/>
      <point x="595" y="680" type="line"/>
      <point x="595" y="710" type="line"/>
      <point x="35" y="710" type="line"/>
      <point x="35" y="678" type="line"/>
      <point x="554" y="678" type="line"/>
      <point x="29" y="30" type="line"/>
    </contour>
  </outline>
</glyph>
<glyph name="braceleft" format="1">
  <advance width="238"/>
  <unicode hex="007B"/>
  <outline>
    <contour>
      <point x="183" y="709" type="line"/>
      <point x="183" y="740" type="line"/>
      <point x="119" y="740" type="line" smooth="yes"/>
      <point x="114" y="740"/>
      <point x="96" y="736"/>
      <point x="96" y="710" type="curve" smooth="yes"/>
      <point x="96" y="423" type="line" smooth="yes"/>
      <point x="96" y="412"/>
      <point x="92" y="376"/>
      <point x="64" y="376" type="curve"/>
      <point x="64" y="346" type="line"/>
      <point x="88" y="343"/>
      <point x="96" y="319"/>
      <point x="96" y="297" type="curve" smooth="yes"/>
      <point x="96" y="-1" type="line" smooth="yes"/>
      <point x="96" y="-23"/>
      <point x="108" y="-31"/>
      <point x="119" y="-31" type="curve" smooth="yes"/>
      <point x="183" y="-31" type="line"/>
      <point x="183" y="0" type="line"/>
      <point x="128" y="0" type="line"/>
      <point x="128" y="302" type="line" smooth="yes"/>
      <point x="128" y="311"/>
      <point x="127" y="342"/>
      <point x="106" y="360" type="curve"/>
      <point x="127" y="379"/>
      <point x="128" y="408"/>
      <point x="128" y="418" type="curve" smooth="yes"/>
      <point x="128" y="709" type="line"/>
    </contour>
  </outline>
</glyph>
<glyph name="sterling" format="1">
  <advance width="476"/>
  <unicode hex="00A3"/>
  <outline>
    <contour>
      <point x="49" y="338" type="line"/>
      <point x="168" y="338" type="line"/>
      <point x="180" y="310"/>
      <point x="188" y="280"/>
      <point x="188" y="245" type="curve" smooth="yes"/>
      <point x="188" y="178"/>
      <point x="159" y="127"/>
      <point x="55" y="19" type="curve"/>
      <point x="68" y="-7" type="line"/>
      <point x="97" y="1"/>
      <point x="136" y="6"/>
      <point x="166" y="6" type="curve" smooth="yes"/>
      <point x="226" y="6"/>
      <point x="264" y="-15"/>
      <point x="323" y="-15" type="curve" smooth="yes"/>
      <point x="358" y="-15"/>
      <point x="394" y="-7"/>
      <point x="430" y="8" type="curve"/>
      <point x="421" y="37" type="line"/>
      <point x="381" y="23"/>
      <point x="352" y="17"/>
      <point x="324" y="17" type="curve" smooth="yes"/>
      <point x="274" y="17"/>
      <point x="238" y="36"/>
      <point x="178" y="36" type="curve" smooth="yes"/>
      <point x="154" y="36"/>
      <point x="129" y="33"/>
      <point x="107" y="28" type="curve"/>
      <point x="191" y="120"/>
      <point x="220" y="177"/>
      <point x="220" y="247" type="curve" smooth="yes"/>
      <point x="220" y="281"/>
      <point x="213" y="311"/>
      <point x="203" y="338" type="curve"/>
      <point x="364" y="338" type="line"/>
      <point x="364" y="368" type="line"/>
      <point x="189" y="368" type="line"/>
      <point x="158" y="432"/>
      <point x="113" y="484"/>
      <point x="113" y="549" type="curve" smooth="yes"/>
      <point x="113" y="624"/>
      <point x="172" y="684"/>
      <point x="245" y="684" type="curve" smooth="yes"/>
      <point x="303" y="684"/>
      <point x="359" y="648"/>
      <point x="391" y="589" type="curve"/>
      <point x="414" y="610" type="line"/>
      <point x="379" y="674"/>
      <point x="315" y="715"/>
      <point x="247" y="715" type="curve" smooth="yes"/>
      <point x="155" y="715"/>
      <point x="79" y="640"/>
      <point x="79" y="548" type="curve" smooth="yes"/>
      <point x="79" y="480"/>
      <point x="122" y="429"/>
      <point x="154" y="368" type="curve"/>
      <point x="49" y="368" type="line"/>
    </contour>
  </outline>
</glyph>
<glyph name="currency" format="1">
  <advance width="534"/>
  <unicode hex="00A4"/>
  <outline>
    <contour>
      <point x="81" y="539" type="line"/>
      <point x="61" y="519" type="line"/>
      <point x="129" y="451" type="line"/>
      <point x="104" y="419"/>
      <point x="89" y="379"/>
      <point x="89" y="335" type="curve" smooth="yes"/>
      <point x="89" y="291"/>
      <point x="105" y="251"/>
      <point x="131" y="219" type="curve"/>
      <point x="61" y="150" type="line"/>
      <point x="80" y="131" type="line"/>
      <point x="150" y="200" type="line"/>
      <point x="181" y="173"/>
      <point x="220" y="156"/>
      <point x="266" y="156" type="curve" smooth="yes"/>
      <point x="312" y="156"/>
      <point x="353" y="174"/>
      <point x="384" y="202" type="curve"/>
      <point x="456" y="131" type="line"/>
      <point x="476" y="150" type="line"/>
      <point x="403" y="221" type="line"/>
      <point x="429" y="253"/>
      <point x="444" y="293"/>
      <point x="444" y="335" type="curve" smooth="yes"/>
      <point x="444" y="378"/>
      <point x="429" y="417"/>
      <point x="404" y="449" type="curve"/>
      <point x="476" y="519" type="line"/>
      <point x="455" y="539" type="line"/>
      <point x="385" y="469" type="line"/>
      <point x="354" y="498"/>
      <point x="313" y="516"/>
      <point x="266" y="516" type="curve" smooth="yes"/>
      <point x="220" y="516"/>
      <point x="179" y="499"/>
      <point x="149" y="471" type="curve"/>
    </contour>
    <contour>
      <point x="121" y="334" type="curve" smooth="yes"/>
      <point x="121" y="420"/>
      <point x="187" y="488"/>
      <point x="266" y="488" type="curve" smooth="yes"/>
      <point x="346" y="488"/>
      <point x="412" y="421"/>
      <point x="412" y="336" type="curve" smooth="yes"/>
      <point x="412" y="253"/>
      <point x="346" y="183"/>
      <point x="266" y="183" type="curve" smooth="yes"/>
      <point x="187" y="183"/>
      <point x="121" y="251"/>
    </contour>
  </outline>
</glyph>
<glyph name="degree" format="1">
  <advance width="256"/>
  <unicode hex="00B0"/>
  <outline>
    <contour>
      <point x="55" y="651" type="curve"/>
      <point x="55" y="610"/>
      <point x="88" y="578"/>
      <point x="128" y="578" type="curve" smooth="yes"/>
      <point x="169" y="578"/>
      <point x="201" y="610"/>
      <point x="201" y="651" type="curve" smooth="yes"/>
      <point x="201" y="692"/>
      <point x="169" y="724"/>
      <point x="128" y="724" type="curve" smooth="yes"/>
      <point x="88" y="724"/>
      <point x="55" y="692"/>
    </contour>
    <contour>
      <point x="94" y="685" type="curve"/>
      <point x="103" y="694"/>
      <point x="114" y="698"/>
      <point x="128" y="698" type="curve" smooth="yes"/>
      <point x="141" y="698"/>
      <point x="153" y="694"/>
      <point x="162" y="685" type="curve" smooth="yes"/>
      <point x="170" y="676"/>
      <point x="176" y="664"/>
      <point x="176" y="651" type="curve" smooth="yes"/>
      <point x="176" y="638"/>
      <point x="170" y="626"/>
      <point x="162" y="618" type="curve" smooth="yes"/>
      <point x="153" y="609"/>
      <point x="141" y="603"/>
      <point x="128" y="603" type="curve" smooth="yes"/>
      <point x="114" y="603"/>
      <point x="103" y="609"/>
      <point x="94" y="618" type="curve" smooth="yes"/>
      <point x="85" y="626"/>
      <point x="80" y="638"/>
      <point x="80" y="651" type="curve" smooth="yes"/>
      <point x="80" y="664"/>
      <point x="85" y="676"/>
    </contour>
  </outline>
</glyph>
<glyph name="plusminus" format="1">
  <advance width="469"/>
  <unicode hex="00B1"/>
  <outline>
    <contour>
      <point x="388" y="78" type="line"/>
      <point x="388" y="109" type="line"/>
      <point x="81" y="109" type="line"/>
      <point x="81" y="78" type="line"/>
    </contour>
    <contour>
      <point x="251" y="373" type="line"/>
      <point x="251" y="520" type="line"/>
      <point x="218" y="520" type="line"/>
      <point x="218" y="373" type="line"/>
      <point x="81" y="373" type="line"/>
      <point x="81" y="342" type="line"/>
      <point x="218" y="342" type="line"/>
      <point x="218" y="195" type="line"/>
      <point x="251" y="195" type="line"/>
      <point x="251" y="342" type="line"/>
      <point x="388" y="342" type="line"/>
      <point x="388" y="373" type="line"/>
    </contour>
  </outline>
</glyph>
<glyph name="onequarter" format="1">
  <advance width="768"/>
  <unicode hex="00BC"/>
  <outline>
    <contour>
      <point x="676" y="0" type="line"/>
      <point x="676" y="108" type="line"/>
      <point x="732" y="108" type="line"/>
      <point x="732" y="134" type="line"/>
      <point x="676" y="134" type="line"/>
      <point x="676" y="388" type="line"/>
      <point x="657" y="388" type="line"/>
      <point x="417" y="132" type="line"/>
      <point x="417" y="108" type="line"/>
      <point x="649" y="108" type="line"/>
      <point x="649" y="0" type="line"/>
    </contour>
    <contour>
      <point x="649" y="345" type="line"/>
      <point x="649" y="134" type="line"/>
      <point x="451" y="134" type="line"/>
    </contour>
    <contour>
      <point x="129" y="-2" type="line"/>
      <point x="405" y="346" type="line"/>
      <point x="686" y="695" type="line"/>
      <point x="664" y="712" type="line"/>
      <point x="387" y="363" type="line"/>
      <point x="108" y="16" type="line"/>
    </contour>
    <contour>
      <point x="170" y="364" type="line"/>
      <point x="170" y="731" type="line"/>
      <point x="142" y="731" type="line"/>
      <point x="141" y="728"/>
      <point x="89" y="677"/>
      <point x="46" y="677" type="curve"/>
      <point x="46" y="650" type="line"/>
      <point x="79" y="650"/>
      <point x="128" y="681"/>
      <point x="142" y="698" type="curve"/>
      <point x="142" y="364" type="line"/>
      <point x="60" y="364" type="line"/>
      <point x="60" y="337" type="line"/>
      <point x="247" y="337" type="line"/>
      <point x="247" y="364" type="line"/>
    </contour>
  </outline>
</glyph>
<glyph name="onehalf" format="1">
  <advance width="816"/>
  <unicode hex="00BD"/>
  <outline>
    <contour>
      <point x="773" y="0" type="line"/>
      <point x="773" y="26" type="line"/>
      <point x="519" y="26" type="line"/>
      <point x="519" y="65"/>
      <point x="531" y="128"/>
      <point x="631" y="159" type="curve" smooth="yes"/>
      <point x="686" y="176"/>
      <point x="772" y="200"/>
      <point x="772" y="281" type="curve" smooth="yes"/>
      <point x="772" y="341"/>
      <point x="728" y="393"/>
      <point x="637" y="393" type="curve" smooth="yes"/>
      <point x="540" y="393"/>
      <point x="492" y="333"/>
      <point x="487" y="326" type="curve"/>
      <point x="506" y="308" type="line"/>
      <point x="523" y="330"/>
      <point x="563" y="367"/>
      <point x="634" y="367" type="curve" smooth="yes"/>
      <point x="707" y="367"/>
      <point x="743" y="326"/>
      <point x="743" y="282" type="curve" smooth="yes"/>
      <point x="743" y="215"/>
      <point x="664" y="198"/>
      <point x="605" y="176" type="curve" smooth="yes"/>
      <point x="526" y="147"/>
      <point x="482" y="100"/>
      <point x="482" y="0" type="curve"/>
    </contour>
    <contour>
      <point x="100" y="-2" type="line"/>
      <point x="376" y="346" type="line"/>
      <point x="657" y="695" type="line"/>
      <point x="635" y="712" type="line"/>
      <point x="358" y="363" type="line"/>
      <point x="79" y="16" type="line"/>
    </contour>
    <contour>
      <point x="173" y="364" type="line"/>
      <point x="173" y="731" type="line"/>
      <point x="145" y="731" type="line"/>
      <point x="144" y="728"/>
      <point x="92" y="677"/>
      <point x="49" y="677" type="curve"/>
      <point x="49" y="650" type="line"/>
      <point x="82" y="650"/>
      <point x="131" y="681"/>
      <point x="145" y="698" type="curve"/>
      <point x="145" y="364" type="line"/>
      <point x="63" y="364" type="line"/>
      <point x="63" y="337" type="line"/>
      <point x="250" y="337" type="line"/>
      <point x="250" y="364" type="line"/>
    </contour>
  </outline>
</glyph>
<glyph name="questiondown" format="1">
  <advance width="463"/>
  <unicode hex="00BF"/>
  <outline>
    <contour>
      <point x="264" y="320" type="line"/>
      <point x="264" y="209"/>
      <point x="229" y="182"/>
      <point x="185" y="158" type="curve" smooth="yes"/>
      <point x="115" y="120"/>
      <point x="34" y="92"/>
      <point x="34" y="-25" type="curve" smooth="yes"/>
      <point x="34" y="-150"/>
      <point x="126" y="-213"/>
      <point x="223" y="-213" type="curve" smooth="yes"/>
      <point x="307" y="-213"/>
      <point x="394" y="-167"/>
      <point x="431" y="-84" type="curve"/>
      <point x="405" y="-70" type="line"/>
      <point x="372" y="-137"/>
      <point x="300" y="-182"/>
      <point x="223" y="-182" type="curve" smooth="yes"/>
      <point x="143" y="-182"/>
      <point x="65" y="-134"/>
      <point x="65" y="-28" type="curve" smooth="yes"/>
      <point x="65" y="82"/>
      <point x="149" y="106"/>
      <point x="209" y="138" type="curve" smooth="yes"/>
      <point x="261" y="166"/>
      <point x="295" y="204"/>
      <point x="295" y="320" type="curve"/>
    </contour>
    <contour>
      <point x="263" y="506" type="line"/>
      <point x="263" y="415" type="line"/>
      <point x="295" y="415" type="line"/>
      <point x="295" y="506" type="line"/>
    </contour>
  </outline>
</glyph>
<glyph name="Acircumflex" format="1">
  <advance width="675"/>
  <unicode hex="00C2"/>
  <outline>
    <contour>
      <point x="16" y="0" type="line"/>
      <point x="54" y="0" type="line"/>
      <point x="159" y="245" type="line"/>
      <point x="515" y="245" type="line"/>
      <point x="620" y="0" type="line"/>
      <point x="657" y="0" type="line"/>
      <point x="352" y="710" type="line"/>
      <point x="322" y="710" type="line"/>
    </contour>
    <contour>
      <point x="169" y="275" type="line"/>
      <point x="337" y="666" type="line"/>
      <point x="504" y="275" type="line"/>
    </contour>
    <contour>
      <point x="252" y="826" type="line"/>
      <point x="337" y="889" type="line"/>
      <point x="422" y="826" type="line"/>
      <point x="445" y="841" type="line"/>
      <point x="350" y="918" type="line"/>
      <point x="324" y="918" type="line"/>
      <point x="230" y="841" type="line"/>
    </contour>
  </outline>
</glyph>
<glyph name="Atilde" format="1">
  <advance width="675"/>
  <unicode hex="00C3"/>
  <outline>
    <contour>
      <point x="16" y="0" type="line"/>
      <point x="54" y="0" type="line"/>
      <point x="159" y="245" type="line"/>
      <point x="515" y="245" type="line"/>
      <point x="620" y="0" type="line"/>
      <point x="657" y="0" type="line"/>
      <point x="352" y="710" type="line"/>
      <point x="322" y="710" type="line"/>
    </contour>
    <contour>
      <point x="169" y="275" type="line"/>
      <point x="337" y="666" type="line"/>
      <point x="504" y="275" type="line"/>
    </contour>
    <contour>
      <point x="398" y="844" type="curve" smooth="yes"/>
      <point x="474" y="844"/>
      <point x="484" y="908"/>
      <point x="484" y="918" type="curve"/>
      <point x="458" y="918" type="line"/>
      <point x="458" y="914"/>
      <point x="454" y="870"/>
      <point x="399" y="870" type="curve" smooth="yes"/>
      <point x="349" y="870"/>
      <point x="327" y="909"/>
      <point x="274" y="909" type="curve" smooth="yes"/>
      <point x="205" y="909"/>
      <point x="195" y="843"/>
      <point x="195" y="834" type="curve"/>
      <point x="222" y="834" type="line"/>
      <point x="222" y="840"/>
      <point x="229" y="882"/>
      <point x="272" y="882" type="curve" smooth="yes"/>
      <point x="314" y="882"/>
      <point x="339" y="844"/>
    </contour>
  </outline>
</glyph>
<glyph name="Ccedilla" format="1">
  <advance width="690"/>
  <unicode hex="00C7"/>
  <outline>
    <contour>
      <point x="287" y="-147" type="line"/>
      <point x="312" y="-157"/>
      <point x="346" y="-166"/>
      <point x="382" y="-166" type="curve" smooth="yes"/>
      <point x="437" y="-166"/>
      <point x="469" y="-147"/>
      <point x="469" y="-105" type="curve" smooth="yes"/>
      <point x="469" y="-69"/>
      <point x="444" y="-49"/>
      <point x="399" y="-49" type="curve" smooth="yes"/>
      <point x="389" y="-49"/>
      <point x="371" y="-50"/>
      <point x="358" y="-55" type="curve"/>
      <point x="388" y="-5" type="line"/>
      <point x="492" y="0"/>
      <point x="608" y="57"/>
      <point x="654" y="159" type="curve"/>
      <point x="623" y="171" type="line"/>
      <point x="571" y="71"/>
      <point x="467" y="27"/>
      <point x="377" y="27" type="curve" smooth="yes"/>
      <point x="209" y="27"/>
      <point x="77" y="183"/>
      <point x="77" y="357" type="curve" smooth="yes"/>
      <point x="77" y="515"/>
      <point x="184" y="681"/>
      <point x="374" y="681" type="curve" smooth="yes"/>
      <point x="461" y="681"/>
      <point x="556" y="646"/>
      <point x="608" y="545" type="curve"/>
      <point x="638" y="559" type="line"/>
      <point x="595" y="649"/>
      <point x="504" y="714"/>
      <point x="378" y="714" type="curve" smooth="yes"/>
      <point x="165" y="714"/>
      <point x="42" y="530"/>
      <point x="42" y="360" type="curve" smooth="yes"/>
      <point x="42" y="184"/>
      <point x="172" y="3"/>
      <point x="358" y="-5" type="curve"/>
      <point x="314" y="-84" type="line"/>
      <point x="332" y="-78"/>
      <point x="367" y="-69"/>
      <point x="395" y="-69" type="curve" smooth="yes"/>
      <point x="424" y="-69"/>
      <point x="444" y="-78"/>
      <point x="444" y="-106" type="curve" smooth="yes"/>
      <point x="444" y="-133"/>
      <point x="424" y="-143"/>
      <point x="386" y="-143" type="curve" smooth="yes"/>
      <point x="352" y="-143"/>
      <point x="318" y="-134"/>
      <point x="299" y="-125" type="curve"/>
    </contour>
  </outline>
</glyph>
<glyph name="Eth" format="1">
  <advance width="719"/>
  <unicode hex="00D0"/>
  <outline>
    <contour>
      <point x="335" y="0" type="line" smooth="yes"/>
      <point x="540" y="0"/>
      <point x="670" y="141"/>
      <point x="670" y="356" type="curve" smooth="yes"/>
      <point x="670" y="552"/>
      <point x="559" y="710"/>
      <point x="335" y="710" type="curve" smooth="yes"/>
      <point x="103" y="710" type="line"/>
      <point x="103" y="372" type="line"/>
      <point x="35" y="372" type="line"/>
      <point x="35" y="342" type="line"/>
      <point x="103" y="342" type="line"/>
      <point x="103" y="0" type="line"/>
    </contour>
    <contour>
      <point x="635" y="356" type="curve" smooth="yes"/>
      <point x="635" y="172"/>
      <point x="532" y="32"/>
      <point x="335" y="32" type="curve" smooth="yes"/>
      <point x="138" y="32" type="line"/>
      <point x="138" y="342" type="line"/>
      <point x="323" y="342" type="line"/>
      <point x="323" y="372" type="line"/>
      <point x="138" y="372" type="line"/>
      <point x="138" y="678" type="line"/>
      <point x="335" y="678" type="line" smooth="yes"/>
      <point x="528" y="678"/>
      <point x="635" y="543"/>
    </contour>
  </outline>
</glyph>
<glyph name="Ntilde" format="1">
  <advance width="775"/>
  <unicode hex="00D1"/>
  <outline>
    <contour>
      <point x="645" y="0" type="line"/>
      <point x="679" y="0" type="line"/>
      <point x="679" y="710" type="line"/>
      <point x="644" y="710" type="line"/>
      <point x="644" y="55" type="line"/>
      <point x="122" y="710" type="line"/>
      <point x="96" y="710" type="line"/>
      <point x="96" y="0" type="line"/>
      <point x="131" y="0" type="line"/>
      <point x="131" y="644" type="line"/>
    </contour>
    <contour>
      <point x="453" y="844" type="curve" smooth="yes"/>
      <point x="529" y="844"/>
      <point x="539" y="908"/>
      <point x="539" y="918" type="curve"/>
      <point x="513" y="918" type="line"/>
      <point x="513" y="914"/>
      <point x="509" y="870"/>
      <point x="454" y="870" type="curve" smooth="yes"/>
      <point x="404" y="870"/>
      <point x="382" y="909"/>
      <point x="329" y="909" type="curve" smooth="yes"/>
      <point x="260" y="909"/>
      <point x="250" y="843"/>
      <point x="250" y="834" type="curve"/>
      <point x="277" y="834" type="line"/>
      <point x="277" y="840"/>
      <point x="284" y="882"/>
      <point x="327" y="882" type="curve" smooth="yes"/>
      <point x="369" y="882"/>
      <point x="394" y="844"/>
    </contour>
  </outline>
</glyph>
<glyph name="germandbls" format="1">
  <advance width="547"/>
  <unicode hex="00DF"/>
  <outline>
    <contour>
      <point x="232" y="-6" type="line"/>
      <point x="404" y="0"/>
      <point x="504" y="73"/>
      <point x="504" y="204" type="curve" smooth="yes"/>
      <point x="504" y="307"/>
      <point x="443" y="381"/>
      <point x="336" y="404" type="curve"/>
      <point x="401" y="417"/>
      <point x="452" y="484"/>
      <point x="452" y="556" type="curve" smooth="yes"/>
      <point x="452" y="647"/>
      <point x="373" y="714"/>
      <point x="270" y="714" type="curve" smooth="yes"/>
      <point x="159" y="714"/>
      <point x="81" y="632"/>
      <point x="81" y="511" type="curve" smooth="yes"/>
      <point x="81" y="0" type="line"/>
      <point x="114" y="0" type="line"/>
      <point x="114" y="508" type="line" smooth="yes"/>
      <point x="114" y="611"/>
      <point x="173" y="682"/>
      <point x="269" y="682" type="curve" smooth="yes"/>
      <point x="353" y="682"/>
      <point x="419" y="628"/>
      <point x="419" y="550" type="curve" smooth="yes"/>
      <point x="419" y="474"/>
      <point x="357" y="418"/>
      <point x="274" y="418" type="curve" smooth="yes"/>
      <point x="258" y="418" type="line"/>
      <point x="258" y="386" type="line"/>
      <point x="275" y="386" type="line" smooth="yes"/>
      <point x="391" y="386"/>
      <point x="469" y="313"/>
      <point x="469" y="205" type="curve" smooth="yes"/>
      <point x="469" y="91"/>
      <point x="382" y="29"/>
      <point x="232" y="26" type="curve"/>
    </contour>
  </outline>
</glyph>
<glyph name="ae" format="1">
  <advance width="929"/>
  <unicode hex="00E6"/>
  <outline>
    <contour>
      <point x="438" y="520" type="move" name="top"/>
    </contour>
    <contour>
      <point x="206" y="-10" type="curve" smooth="yes"/>
      <point x="290" y="-10"/>
      <point x="395" y="25"/>
      <point x="438" y="109" type="curve"/>
      <point x="483" y="37"/>
      <point x="560" y="-10"/>
      <point x="647" y="-10" type="curve" smooth="yes"/>
      <point x="740" y="-10"/>
      <point x="828" y="43"/>
      <point x="858" y="116" type="curve"/>
      <point x="827" y="124" type="line"/>
      <point x="799" y="62"/>
      <point x="725" y="19"/>
      <point x="649" y="19" type="curve" smooth="yes"/>
      <point x="533" y="19"/>
      <point x="436" y="117"/>
      <point x="427" y="245" type="curve"/>
      <point x="895" y="245" type="line"/>
      <point x="895" y="246"/>
      <point x="896" y="258"/>
      <point x="896" y="259" type="curve" smooth="yes"/>
      <point x="895" y="408"/>
      <point x="785" y="528"/>
      <point x="643" y="528" type="curve" smooth="yes"/>
      <point x="556" y="528"/>
      <point x="480" y="480"/>
      <point x="437" y="410" type="curve"/>
      <point x="411" y="484"/>
      <point x="347" y="528"/>
      <point x="259" y="528" type="curve" smooth="yes"/>
      <point x="202" y="528"/>
      <point x="140" y="505"/>
      <point x="74" y="460" type="curve"/>
      <point x="89" y="435" type="line"/>
      <point x="147" y="476"/>
      <point x="206" y="499"/>
      <point x="257" y="499" type="curve" smooth="yes"/>
      <point x="340" y="499"/>
      <point x="399" y="450"/>
      <point x="415" y="373" type="curve"/>
      <point x="403" y="344"/>
      <point x="396" y="313"/>
      <point x="394" y="280" type="curve"/>
      <point x="351" y="292"/>
      <point x="300" y="300"/>
      <point x="252" y="300" type="curve" smooth="yes"/>
      <point x="126" y="300"/>
      <point x="37" y="238"/>
      <point x="37" y="150" type="curve" smooth="yes"/>
      <point x="37" y="60"/>
      <point x="112" y="-10"/>
    </contour>
    <contour>
      <point x="211" y="19" type="curve" smooth="yes"/>
      <point x="132" y="19"/>
      <point x="70" y="77"/>
      <point x="70" y="151" type="curve" smooth="yes"/>
      <point x="70" y="225"/>
      <point x="145" y="274"/>
      <point x="255" y="274" type="curve" smooth="yes"/>
      <point x="303" y="274"/>
      <point x="350" y="267"/>
      <point x="394" y="253" type="curve"/>
      <point x="395" y="214"/>
      <point x="404" y="174"/>
      <point x="421" y="141" type="curve"/>
      <point x="419" y="130"/>
      <point x="413" y="117"/>
      <point x="405" y="106" type="curve" smooth="yes"/>
      <point x="370" y="53"/>
      <point x="295" y="19"/>
    </contour>
    <contour>
      <point x="427" y="272" type="line"/>
      <point x="433" y="402"/>
      <point x="525" y="498"/>
      <point x="643" y="498" type="curve" smooth="yes"/>
      <point x="761" y="498"/>
      <point x="853" y="404"/>
      <point x="862" y="272" type="curve"/>
    </contour>
  </outline>
</glyph>
<glyph name="ccedilla" format="1">
  <advance width="541"/>
  <unicode hex="00E7"/>
  <outline>
    <contour>
      <point x="210" y="-147" type="line"/>
      <point x="235" y="-157"/>
      <point x="269" y="-166"/>
      <point x="305" y="-166" type="curve" smooth="yes"/>
      <point x="360" y="-166"/>
      <point x="392" y="-147"/>
      <point x="392" y="-105" type="curve" smooth="yes"/>
      <point x="392" y="-69"/>
      <point x="367" y="-49"/>
      <point x="322" y="-49" type="curve" smooth="yes"/>
      <point x="312" y="-49"/>
      <point x="294" y="-50"/>
      <point x="281" y="-55" type="curve"/>
      <point x="308" y="-10" type="line"/>
      <point x="397" y="-6"/>
      <point x="480" y="45"/>
      <point x="504" y="115" type="curve"/>
      <point x="470" y="125" type="line"/>
      <point x="454" y="70"/>
      <point x="372" y="22"/>
      <point x="295" y="22" type="curve" smooth="yes"/>
      <point x="177" y="22"/>
      <point x="78" y="131"/>
      <point x="78" y="262" type="curve" smooth="yes"/>
      <point x="78" y="394"/>
      <point x="173" y="496"/>
      <point x="294" y="496" type="curve" smooth="yes"/>
      <point x="367" y="496"/>
      <point x="431" y="459"/>
      <point x="464" y="398" type="curve"/>
      <point x="497" y="410" type="line"/>
      <point x="462" y="483"/>
      <point x="387" y="528"/>
      <point x="297" y="528" type="curve" smooth="yes"/>
      <point x="152" y="528"/>
      <point x="44" y="411"/>
      <point x="44" y="262" type="curve" smooth="yes"/>
      <point x="44" y="119"/>
      <point x="147" y="1"/>
      <point x="279" y="-9" type="curve"/>
      <point x="237" y="-84" type="line"/>
      <point x="255" y="-78"/>
      <point x="290" y="-69"/>
      <point x="318" y="-69" type="curve" smooth="yes"/>
      <point x="347" y="-69"/>
      <point x="367" y="-78"/>
      <point x="367" y="-106" type="curve" smooth="yes"/>
      <point x="367" y="-133"/>
      <point x="347" y="-143"/>
      <point x="309" y="-143" type="curve" smooth="yes"/>
      <point x="275" y="-143"/>
      <point x="241" y="-134"/>
      <point x="222" y="-125" type="curve"/>
    </contour>
  </outline>
</glyph>
<glyph name="igrave" format="1">
  <advance width="197"/>
  <unicode hex="00EC"/>
  <outline>
    <contour>
      <point x="115" y="0" type="line"/>
      <point x="115" y="520" type="line"/>
      <point x="81" y="520" type="line"/>
      <point x="81" y="0" type="line"/>
    </contour>
    <contour>
      <point x="106" y="638" type="line"/>
      <point x="130" y="651" type="line"/>
      <point x="67" y="730" type="line"/>
      <point x="23" y="730" type="line"/>
    </contour>
  </outline>
</glyph>
<glyph name="ntilde" format="1">
  <advance width="570"/>
  <unicode hex="00F1"/>
  <outline>
    <contour>
      <point x="495" y="294" type="line" smooth="yes"/>
      <point x="495" y="449"/>
      <point x="449" y="528"/>
      <point x="340" y="528" type="curve" smooth="yes"/>
      <point x="247" y="528"/>
      <point x="156" y="472"/>
      <point x="114" y="390" type="curve"/>
      <point x="114" y="520" type="line"/>
      <point x="81" y="520" type="line"/>
      <point x="81" y="0" type="line"/>
      <point x="115" y="0" type="line"/>
      <point x="115" y="325" type="line"/>
      <point x="143" y="423"/>
      <point x="240" y="496"/>
      <point x="334" y="496" type="curve" smooth="yes"/>
      <point x="422" y="496"/>
      <point x="461" y="432"/>
      <point x="461" y="290" type="curve" smooth="yes"/>
      <point x="461" y="0" type="line"/>
      <point x="495" y="0" type="line"/>
    </contour>
    <contour>
      <point x="346" y="656" type="curve" smooth="yes"/>
      <point x="422" y="656"/>
      <point x="432" y="720"/>
      <point x="432" y="730" type="curve"/>
      <point x="406" y="730" type="line"/>
      <point x="406" y="726"/>
      <point x="402" y="682"/>
      <point x="347" y="682" type="curve" smooth="yes"/>
      <point x="297" y="682"/>
      <point x="275" y="721"/>
      <point x="222" y="721" type="curve" smooth="yes"/>
      <point x="153" y="721"/>
      <point x="143" y="655"/>
      <point x="143" y="646" type="curve"/>
      <point x="170" y="646" type="line"/>
      <point x="170" y="652"/>
      <point x="177" y="694"/>
      <point x="220" y="694" type="curve" smooth="yes"/>
      <point x="262" y="694"/>
      <point x="287" y="656"/>
    </contour>
  </outline>
</glyph>
<glyph name="otilde" format="1">
  <advance width="589"/>
  <unicode hex="00F5"/>
  <outline>
    <contour>
      <point x="294" y="-10" type="curve" smooth="yes"/>
      <point x="435" y="-10"/>
      <point x="545" y="113"/>
      <point x="545" y="258" type="curve" smooth="yes"/>
      <point x="545" y="404"/>
      <point x="433" y="528"/>
      <point x="294" y="528" type="curve" smooth="yes"/>
      <point x="156" y="528"/>
      <point x="44" y="404"/>
      <point x="44" y="258" type="curve" smooth="yes"/>
      <point x="44" y="113"/>
      <point x="153" y="-10"/>
    </contour>
    <contour>
      <point x="78" y="257" type="curve" smooth="yes"/>
      <point x="78" y="387"/>
      <point x="177" y="496"/>
      <point x="294" y="496" type="curve" smooth="yes"/>
      <point x="412" y="496"/>
      <point x="510" y="388"/>
      <point x="510" y="259" type="curve" smooth="yes"/>
      <point x="510" y="130"/>
      <point x="412" y="22"/>
      <point x="293" y="22" type="curve" smooth="yes"/>
      <point x="175" y="22"/>
      <point x="78" y="128"/>
    </contour>
    <contour>
      <point x="355" y="656" type="curve" smooth="yes"/>
      <point x="431" y="656"/>
      <point x="441" y="720"/>
      <point x="441" y="730" type="curve"/>
      <point x="415" y="730" type="line"/>
      <point x="415" y="726"/>
      <point x="411" y="682"/>
      <point x="356" y="682" type="curve" smooth="yes"/>
      <point x="306" y="682"/>
      <point x="284" y="721"/>
      <point x="231" y="721" type="curve" smooth="yes"/>
      <point x="162" y="721"/>
      <point x="152" y="655"/>
      <point x="152" y="646" type="curve"/>
      <point x="179" y="646" type="line"/>
      <point x="179" y="652"/>
      <point x="186" y="694"/>
      <point x="229" y="694" type="curve" smooth="yes"/>
      <point x="271" y="694"/>
      <point x="296" y="656"/>
    </contour>
  </outline>
</glyph>
<glyph name="ucircumflex" format="1">
  <advance width="581"/>
  <unicode hex="00FB"/>
  <outline>
    <contour>
      <point x="199" y="638" type="line"/>
      <point x="284" y="701" type="line"/>
      <point x="369" y="638" type="line"/>
      <point x="392" y="653" type="line"/>
      <point x="297" y="730" type="line"/>
      <point x="271" y="730" type="line"/>
      <point x="177" y="653" type="line"/>
    </contour>
    <contour>
      <point x="242" y="-10" type="curve" smooth="yes"/>
      <point x="335" y="-10"/>
      <point x="421" y="43"/>
      <point x="466" y="128" type="curve"/>
      <point x="466" y="42" type="line" smooth="yes"/>
      <point x="466" y="18"/>
      <point x="485" y="-1"/>
      <point x="506" y="-1" type="curve" smooth="yes"/>
      <point x="509" y="-1"/>
      <point x="512" y="-1"/>
      <point x="516" y="0" type="curve"/>
      <point x="516" y="32" type="line"/>
      <point x="504" y="32"/>
      <point x="498" y="40"/>
      <point x="498" y="54" type="curve" smooth="yes"/>
      <point x="498" y="520" type="line"/>
      <point x="464" y="520" type="line"/>
      <point x="464" y="190" type="line"/>
      <point x="433" y="91"/>
      <point x="343" y="22"/>
      <point x="249" y="22" type="curve" smooth="yes"/>
      <point x="155" y="22"/>
      <point x="110" y="89"/>
      <point x="110" y="228" type="curve" smooth="yes"/>
      <point x="110" y="520" type="line"/>
      <point x="76" y="520" type="line"/>
      <point x="76" y="224" type="line" smooth="yes"/>
      <point x="76" y="70"/>
      <point x="133" y="-10"/>
    </contour>
  </outline>
</glyph>
<glyph name="udieresis" format="1">
  <advance width="581"/>
  <unicode hex="00FC"/>
  <outline>
    <contour>
      <point x="237" y="647" type="line"/>
      <point x="237" y="729" type="line"/>
      <point x="206" y="729" type="line"/>
      <point x="206" y="647" type="line"/>
    </contour>
    <contour>
      <point x="363" y="647" type="line"/>
      <point x="363" y="729" type="line"/>
      <point x="332" y="729" type="line"/>
      <point x="332" y="647" type="line"/>
    </contour>
    <contour>
      <point x="242" y="-10" type="curve" smooth="yes"/>
      <point x="335" y="-10"/>
      <point x="421" y="43"/>
      <point x="466" y="128" type="curve"/>
      <point x="466" y="42" type="line" smooth="yes"/>
      <point x="466" y="18"/>
      <point x="485" y="-1"/>
      <point x="506" y="-1" type="curve" smooth="yes"/>
      <point x="509" y="-1"/>
      <point x="512" y="-1"/>
      <point x="516" y="0" type="curve"/>
      <point x="516" y="32" type="line"/>
      <point x="504" y="32"/>
      <point x="498" y="40"/>
      <point x="498" y="54" type="curve" smooth="yes"/>
      <point x="498" y="520" type="line"/>
      <point x="464" y="520" type="line"/>
      <point x="464" y="190" type="line"/>
      <point x="433" y="91"/>
      <point x="343" y="22"/>
      <point x="249" y="22" type="curve" smooth="yes"/>
      <point x="155" y="22"/>
      <point x="110" y="89"/>
      <point x="110" y="228" type="curve" smooth="yes"/>
      <point x="110" y="520" type="line"/>
      <point x="76" y="520" type="line"/>
      <point x="76" y="224" type="line" smooth="yes"/>
      <point x="76" y="70"/>
      <point x="133" y="-10"/>
    </contour>
  </outline>
</glyph>
<glyph name="Abreve" format="1">
  <advance width="675"/>
  <unicode hex="0102"/>
  <outline>
    <contour>
      <point x="16" y="0" type="line"/>
      <point x="54" y="0" type="line"/>
      <point x="159" y="245" type="line"/>
      <point x="515" y="245" type="line"/>
      <point x="620" y="0" type="line"/>
      <point x="657" y="0" type="line"/>
      <point x="352" y="710" type="line"/>
      <point x="322" y="710" type="line"/>
    </contour>
    <contour>
      <point x="169" y="275" type="line"/>
      <point x="337" y="666" type="line"/>
      <point x="504" y="275" type="line"/>
    </contour>
    <contour>
      <point x="337" y="856" type="curve" smooth="yes"/>
      <point x="309" y="856"/>
      <point x="282" y="887"/>
      <point x="282" y="918" type="curve"/>
      <point x="256" y="918" type="line"/>
      <point x="256" y="872"/>
      <point x="293" y="834"/>
      <point x="337" y="834" type="curve" smooth="yes"/>
      <point x="380" y="834"/>
      <point x="418" y="872"/>
      <point x="418" y="918" type="curve"/>
      <point x="393" y="918" type="line"/>
      <point x="389" y="884"/>
      <point x="364" y="856"/>
    </contour>
  </outline>
</glyph>
<glyph name="Cacute" format="1">
  <advance width="694"/>
  <unicode hex="0106"/>
  <outline>
    <contour>
      <point x="455" y="918" type="line"/>
      <point x="410" y="918" type="line"/>
      <point x="348" y="839" type="line"/>
      <point x="372" y="826" type="line"/>
    </contour>
    <contour>
      <point x="46" y="360" type="curve" smooth="yes"/>
      <point x="46" y="180"/>
      <point x="183" y="-6"/>
      <point x="377" y="-6" type="curve" smooth="yes"/>
      <point x="485" y="-6"/>
      <point x="610" y="52"/>
      <point x="658" y="159" type="curve"/>
      <point x="627" y="171" type="line"/>
      <point x="575" y="71"/>
      <point x="471" y="27"/>
      <point x="381" y="27" type="curve" smooth="yes"/>
      <point x="213" y="27"/>
      <point x="81" y="183"/>
      <point x="81" y="357" type="curve" smooth="yes"/>
      <point x="81" y="515"/>
      <point x="188" y="681"/>
      <point x="378" y="681" type="curve" smooth="yes"/>
      <point x="465" y="681"/>
      <point x="560" y="646"/>
      <point x="612" y="545" type="curve"/>
      <point x="642" y="559" type="line"/>
      <point x="599" y="649"/>
      <point x="508" y="714"/>
      <point x="382" y="714" type="curve" smooth="yes"/>
      <point x="169" y="714"/>
      <point x="46" y="530"/>
    </contour>
  </outline>
</glyph>
<glyph name="ccircumflex" format="1">
  <advance width="541"/>
  <unicode hex="0109"/>
  <outline>
    <contour>
      <point x="209" y="638" type="line"/>
      <point x="294" y="701" type="line"/>
      <point x="379" y="638" type="line"/>
      <point x="402" y="653" type="line"/>
      <point x="307" y="730" type="line"/>
      <point x="281" y="730" type="line"/>
      <point x="187" y="653" type="line"/>
    </contour>
    <contour>
      <point x="44" y="262" type="curve" smooth="yes"/>
      <point x="44" y="113"/>
      <point x="157" y="-10"/>
      <point x="298" y="-10" type="curve" smooth="yes"/>
      <point x="391" y="-10"/>
      <point x="479" y="43"/>
      <point x="504" y="115" type="curve"/>
      <point x="470" y="125" type="line"/>
      <point x="454" y="70"/>
      <point x="372" y="22"/>
      <point x="295" y="22" type="curve" smooth="yes"/>
      <point x="177" y="22"/>
      <point x="78" y="131"/>
      <point x="78" y="262" type="curve" smooth="yes"/>
      <point x="78" y="394"/>
      <point x="173" y="496"/>
      <point x="294" y="496" type="curve" smooth="yes"/>
      <point x="367" y="496"/>
      <point x="431" y="459"/>
      <point x="464" y="398" type="curve"/>
      <point x="497" y="410" type="line"/>
      <point x="462" y="483"/>
      <point x="387" y="528"/>
      <point x="297" y="528" type="curve" smooth="yes"/>
      <point x="152" y="528"/>
      <point x="44" y="411"/>
    </contour>
  </outline>
</glyph>
<glyph name="Ebreve" format="1">
  <advance width="615"/>
  <unicode hex="0114"/>
  <outline>
    <contour>
      <point x="131" y="32" type="line"/>
      <point x="131" y="347" type="line"/>
      <point x="503" y="347" type="line"/>
      <point x="503" y="379" type="line"/>
      <point x="131" y="379" type="line"/>
      <point x="131" y="678" type="line"/>
      <point x="556" y="678" type="line"/>
      <point x="556" y="710" type="line"/>
      <point x="96" y="710" type="line"/>
      <point x="96" y="0" type="line"/>
      <point x="565" y="0" type="line"/>
      <point x="565" y="32" type="line"/>
    </contour>
    <contour>
      <point x="342" y="856" type="curve" smooth="yes"/>
      <point x="314" y="856"/>
      <point x="287" y="887"/>
      <point x="287" y="918" type="curve"/>
      <point x="261" y="918" type="line"/>
      <point x="261" y="872"/>
      <point x="298" y="834"/>
      <point x="342" y="834" type="curve" smooth="yes"/>
      <point x="385" y="834"/>
      <point x="423" y="872"/>
      <point x="423" y="918" type="curve"/>
      <point x="398" y="918" type="line"/>
      <point x="394" y="884"/>
      <point x="369" y="856"/>
    </contour>
  </outline>
</glyph>
<glyph name="Gcircumflex" format="1">
  <advance width="719"/>
  <unicode hex="011C"/>
  <outline>
    <contour>
      <point x="285" y="826" type="line"/>
      <point x="370" y="889" type="line"/>
      <point x="455" y="826" type="line"/>
      <point x="478" y="841" type="line"/>
      <point x="383" y="918" type="line"/>
      <point x="357" y="918" type="line"/>
      <point x="263" y="841" type="line"/>
    </contour>
    <contour>
      <point x="628" y="0" type="line"/>
      <point x="660" y="0" type="line"/>
      <point x="660" y="341" type="line"/>
      <point x="464" y="341" type="line"/>
      <point x="464" y="311" type="line"/>
      <point x="628" y="311" type="line"/>
      <point x="628" y="157" type="line"/>
      <point x="551" y="68"/>
      <point x="471" y="28"/>
      <point x="382" y="28" type="curve" smooth="yes"/>
      <point x="214" y="28"/>
      <point x="81" y="182"/>
      <point x="81" y="355" type="curve" smooth="yes"/>
      <point x="81" y="517"/>
      <point x="192" y="682"/>
      <point x="370" y="682" type="curve" smooth="yes"/>
      <point x="476" y="682"/>
      <point x="561" y="642"/>
      <point x="613" y="545" type="curve"/>
      <point x="642" y="560" type="line"/>
      <point x="597" y="650"/>
      <point x="516" y="715"/>
      <point x="371" y="715" type="curve" smooth="yes"/>
      <point x="182" y="715"/>
      <point x="46" y="542"/>
      <point x="46" y="355" type="curve" smooth="yes"/>
      <point x="46" y="179"/>
      <point x="185" y="-5"/>
      <point x="380" y="-5" type="curve" smooth="yes"/>
      <point x="473" y="-5"/>
      <point x="556" y="35"/>
      <point x="628" y="116" type="curve"/>
    </contour>
  </outline>
</glyph>
<glyph name="Gbreve" format="1">
  <advance width="719"/>
  <unicode hex="011E"/>
  <outline>
    <contour>
      <point x="628" y="0" type="line"/>
      <point x="660" y="0" type="line"/>
      <point x="660" y="341" type="line"/>
      <point x="464" y="341" type="line"/>
      <point x="464" y="311" type="line"/>
      <point x="628" y="311" type="line"/>
      <point x="628" y="157" type="line"/>
      <point x="551" y="68"/>
      <point x="471" y="28"/>
      <point x="382" y="28" type="curve" smooth="yes"/>
      <point x="214" y="28"/>
      <point x="81" y="182"/>
      <point x="81" y="355" type="curve" smooth="yes"/>
      <point x="81" y="517"/>
      <point x="192" y="682"/>
      <point x="370" y="682" type="curve" smooth="yes"/>
      <point x="476" y="682"/>
      <point x="561" y="642"/>
      <point x="613" y="545" type="curve"/>
      <point x="642" y="560" type="line"/>
      <point x="597" y="650"/>
      <point x="516" y="715"/>
      <point x="371" y="715" type="curve" smooth="yes"/>
      <point x="182" y="715"/>
      <point x="46" y="542"/>
      <point x="46" y="355" type="curve" smooth="yes"/>
      <point x="46" y="179"/>
      <point x="185" y="-5"/>
      <point x="380" y="-5" type="curve" smooth="yes"/>
      <point x="473" y="-5"/>
      <point x="556" y="35"/>
      <point x="628" y="116" type="curve"/>
    </contour>
    <contour>
      <point x="370" y="856" type="curve" smooth="yes"/>
      <point x="342" y="856"/>
      <point x="315" y="887"/>
      <point x="315" y="918" type="curve"/>
      <point x="289" y="918" type="line"/>
      <point x="289" y="872"/>
      <point x="326" y="834"/>
      <point x="370" y="834" type="curve" smooth="yes"/>
      <point x="413" y="834"/>
      <point x="451" y="872"/>
      <point x="451" y="918" type="curve"/>
      <point x="426" y="918" type="line"/>
      <point x="422" y="884"/>
      <point x="397" y="856"/>
    </contour>
  </outline>
</glyph>
<glyph name="itilde" format="1">
  <advance width="197"/>
  <unicode hex="0129"/>
  <outline>
    <contour>
      <point x="115" y="0" type="line"/>
      <point x="115" y="520" type="line"/>
      <point x="81" y="520" type="line"/>
      <point x="81" y="0" type="line"/>
    </contour>
    <contour>
      <point x="159" y="656" type="curve" smooth="yes"/>
      <point x="235" y="656"/>
      <point x="245" y="720"/>
      <point x="245" y="730" type="curve"/>
      <point x="219" y="730" type="line"/>
      <point x="219" y="726"/>
      <point x="215" y="682"/>
      <point x="160" y="682" type="curve" smooth="yes"/>
      <point x="110" y="682"/>
      <point x="88" y="721"/>
      <point x="35" y="721" type="curve" smooth="yes"/>
      <point x="-34" y="721"/>
      <point x="-44" y="655"/>
      <point x="-44" y="646" type="curve"/>
      <point x="-17" y="646" type="line"/>
      <point x="-17" y="652"/>
      <point x="-10" y="694"/>
      <point x="33" y="694" type="curve" smooth="yes"/>
      <point x="75" y="694"/>
      <point x="100" y="656"/>
    </contour>
  </outline>
</glyph>
<glyph name="ibreve" format="1">
  <advance width="197"/>
  <unicode hex="012D"/>
  <outline>
    <contour>
      <point x="115" y="0" type="line"/>
      <point x="115" y="520" type="line"/>
      <point x="81" y="520" type="line"/>
      <point x="81" y="0" type="line"/>
    </contour>
    <contour>
      <point x="98" y="668" type="curve" smooth="yes"/>
      <point x="70" y="668"/>
      <point x="43" y="699"/>
      <point x="43" y="730" type="curve"/>
      <point x="17" y="730" type="line"/>
      <point x="17" y="684"/>
      <point x="54" y="646"/>
      <point x="98" y="646" type="curve" smooth="yes"/>
      <point x="141" y="646"/>
      <point x="179" y="684"/>
      <point x="179" y="730" type="curve"/>
      <point x="154" y="730" type="line"/>
      <point x="150" y="696"/>
      <point x="125" y="668"/>
    </contour>
  </outline>
</glyph>
<glyph name="IJ" format="1">
  <advance width="702"/>
  <unicode hex="0132"/>
  <outline>
    <contour>
      <point x="131" y="0" type="line"/>
      <point x="131" y="710" type="line"/>
      <point x="96" y="710" type="line"/>
      <point x="96" y="0" type="line"/>
    </contour>
    <contour>
      <point x="245" y="33" type="line"/>
      <point x="287" y="4"/>
      <point x="338" y="-11"/>
      <point x="399" y="-11" type="curve" smooth="yes"/>
      <point x="591" y="-11"/>
      <point x="615" y="133"/>
      <point x="615" y="349" type="curve" smooth="yes"/>
      <point x="615" y="710" type="line"/>
      <point x="581" y="710" type="line"/>
      <point x="581" y="349" type="line" smooth="yes"/>
      <point x="581" y="143"/>
      <point x="561" y="22"/>
      <point x="399" y="22" type="curve" smooth="yes"/>
      <point x="342" y="22"/>
      <point x="294" y="36"/>
      <point x="258" y="61" type="curve"/>
    </contour>
  </outline>
</glyph>
<glyph name="jcircumflex" format="1">
  <advance width="197"/>
  <unicode hex="0135"/>
  <outline>
    <contour>
      <point x="-24" y="-173" type="curve" smooth="yes"/>
      <point x="43" y="-173"/>
      <point x="115" y="-114"/>
      <point x="115" y="-32" type="curve" smooth="yes"/>
      <point x="115" y="520" type="line"/>
      <point x="81" y="520" type="line"/>
      <point x="81" y="-33" type="line" smooth="yes"/>
      <point x="81" y="-94"/>
      <point x="26" y="-141"/>
      <point x="-27" y="-141" type="curve" smooth="yes"/>
      <point x="-54" y="-141"/>
      <point x="-84" y="-136"/>
      <point x="-107" y="-116" type="curve"/>
      <point x="-128" y="-138" type="line"/>
      <point x="-101" y="-164"/>
      <point x="-64" y="-173"/>
    </contour>
    <contour>
      <point x="13" y="638" type="line"/>
      <point x="98" y="701" type="line"/>
      <point x="183" y="638" type="line"/>
      <point x="206" y="653" type="line"/>
      <point x="111" y="730" type="line"/>
      <point x="85" y="730" type="line"/>
      <point x="-9" y="653" type="line"/>
    </contour>
  </outline>
</glyph>
<glyph name="Kcommaaccent" format="1">
  <advance width="627"/>
  <unicode hex="0136"/>
  <outline>
    <contour>
      <point x="318" y="-176" type="line"/>
      <point x="335" y="-114" type="line"/>
      <point x="335" y="-50" type="line"/>
      <point x="298" y="-50" type="line"/>
      <point x="298" y="-114" type="line"/>
      <point x="310" y="-114" type="line"/>
      <point x="298" y="-176" type="line"/>
    </contour>
    <contour>
      <point x="131" y="0" type="line"/>
      <point x="131" y="220" type="line"/>
      <point x="285" y="378" type="line"/>
      <point x="581" y="0" type="line"/>
      <point x="622" y="0" type="line"/>
      <point x="309" y="399" type="line"/>
      <point x="608" y="710" type="line"/>
      <point x="565" y="710" type="line"/>
      <point x="131" y="263" type="line"/>
      <point x="131" y="710" type="line"/>
      <point x="96" y="710" type="line"/>
      <point x="96" y="0" type="line"/>
    </contour>
  </outline>
</glyph>
<glyph name="kcommaaccent" format="1">
  <advance width="514"/>
  <unicode hex="0137"/>
  <outline>
    <contour>
      <point x="267" y="-176" type="line"/>
      <point x="284" y="-114" type="line"/>
      <point x="284" y="-50" type="line"/>
      <point x="247" y="-50" type="line"/>
      <point x="247" y="-114" type="line"/>
      <point x="259" y="-114" type="line"/>
      <point x="247" y="-176" type="line"/>
    </contour>
    <contour>
      <point x="499" y="0" type="line"/>
      <point x="272" y="310" type="line"/>
      <point x="493" y="518" type="line"/>
      <point x="452" y="518" type="line"/>
      <point x="115" y="207" type="line"/>
      <point x="115" y="730" type="line"/>
      <point x="81" y="730" type="line"/>
      <point x="81" y="0" type="line"/>
      <point x="115" y="0" type="line"/>
      <point x="115" y="167" type="line"/>
      <point x="248" y="288" type="line"/>
      <point x="460" y="0" type="line"/>
    </contour>
  </outline>
</glyph>
<glyph name="lacute" format="1">
  <advance width="248"/>
  <unicode hex="013A"/>
  <outline>
    <contour>
      <point x="169" y="870" type="line"/>
      <point x="124" y="870" type="line"/>
      <point x="62" y="791" type="line"/>
      <point x="86" y="778" type="line"/>
    </contour>
    <contour>
      <point x="87" y="82" type="line"/>
      <point x="87" y="29"/>
      <point x="121" y="-5"/>
      <point x="172" y="-5" type="curve" smooth="yes"/>
      <point x="193" y="-5"/>
      <point x="228" y="1"/>
      <point x="248" y="8" type="curve"/>
      <point x="240" y="36" type="line"/>
      <point x="223" y="30"/>
      <point x="200" y="26"/>
      <point x="185" y="26" type="curve" smooth="yes"/>
      <point x="146" y="26"/>
      <point x="120" y="50"/>
      <point x="120" y="89" type="curve" smooth="yes"/>
      <point x="120" y="730" type="line"/>
      <point x="87" y="730" type="line"/>
    </contour>
  </outline>
</glyph>
<glyph name="Lcaron" format="1">
  <advance width="580"/>
  <unicode hex="013D"/>
  <outline>
    <contour>
      <point x="446" y="730" type="line"/>
      <point x="401" y="730" type="line"/>
      <point x="339" y="651" type="line"/>
      <point x="363" y="638" type="line"/>
    </contour>
    <contour>
      <point x="566" y="0" type="line"/>
      <point x="566" y="32" type="line"/>
      <point x="131" y="32" type="line"/>
      <point x="131" y="710" type="line"/>
      <point x="96" y="710" type="line"/>
      <point x="96" y="0" type="line"/>
    </contour>
  </outline>
</glyph>
<glyph name="ldot" format="1">
  <advance width="272"/>
  <unicode hex="0140"/>
  <outline>
    <contour>
      <point x="87" y="82" type="line"/>
      <point x="87" y="29"/>
      <point x="121" y="-5"/>
      <point x="172" y="-5" type="curve" smooth="yes"/>
      <point x="193" y="-5"/>
      <point x="228" y="1"/>
      <point x="248" y="8" type="curve"/>
      <point x="240" y="36" type="line"/>
      <point x="223" y="30"/>
      <point x="200" y="26"/>
      <point x="185" y="26" type="curve" smooth="yes"/>
      <point x="146" y="26"/>
      <point x="120" y="50"/>
      <point x="120" y="89" type="curve" smooth="yes"/>
      <point x="120" y="730" type="line"/>
      <point x="87" y="730" type="line"/>
    </contour>
    <contour>
      <point x="254" y="254" type="line"/>
      <point x="254" y="345" type="line"/>
      <point x="223" y="345" type="line"/>
      <point x="223" y="254" type="line"/>
    </contour>
  </outline>
</glyph>
<glyph name="Lslash" format="1">
  <advance width="587"/>
  <unicode hex="0141"/>
  <outline>
    <contour>
      <point x="573" y="0" type="line"/>
      <point x="573" y="32" type="line"/>
      <point x="138" y="32" type="line"/>
      <point x="138" y="314" type="line"/>
      <point x="332" y="499" type="line"/>
      <point x="316" y="521" type="line"/>
      <point x="138" y="352" type="line"/>
      <point x="138" y="710" type="line"/>
      <point x="103" y="710" type="line"/>
      <point x="103" y="319" type="line"/>
      <point x="25" y="246" type="line"/>
      <point x="42" y="223" type="line"/>
      <point x="103" y="281" type="line"/>
      <point x="103" y="0" type="line"/>
    </contour>
  </outline>
</glyph>
<glyph name="nacute" format="1">
  <advance width="570"/>
  <unicode hex="0144"/>
  <outline>
    <contour>
      <point x="359" y="730" type="line"/>
      <point x="314" y="730" type="line"/>
      <point x="252" y="651" type="line"/>
      <point x="276" y="638" type="line"/>
    </contour>
    <contour>
      <point x="495" y="294" type="line" smooth="yes"/>
      <point x="495" y="449"/>
      <point x="449" y="528"/>
      <point x="340" y="528" type="curve" smooth="yes"/>
      <point x="247" y="528"/>
      <point x="156" y="472"/>
      <point x="114" y="390" type="curve"/>
      <point x="114" y="520" type="line"/>
      <point x="81" y="520" type="line"/>
      <point x="81" y="0" type="line"/>
      <point x="115" y="0" type="line"/>
      <point x="115" y="325" type="line"/>
      <point x="143" y="423"/>
      <point x="240" y="496"/>
      <point x="334" y="496" type="curve" smooth="yes"/>
      <point x="422" y="496"/>
      <point x="461" y="432"/>
      <point x="461" y="290" type="curve" smooth="yes"/>
      <point x="461" y="0" type="line"/>
      <point x="495" y="0" type="line"/>
    </contour>
  </outline>
</glyph>
<glyph name="Ncaron" format="1">
  <advance width="775"/>
  <unicode hex="0147"/>
  <outline>
    <contour>
      <point x="285" y="904" type="line"/>
      <point x="379" y="826" type="line"/>
      <point x="405" y="826" type="line"/>
      <point x="500" y="904" type="line"/>
      <point x="477" y="918" type="line"/>
      <point x="392" y="855" type="line"/>
      <point x="307" y="918" type="line"/>
    </contour>
    <contour>
      <point x="645" y="0" type="line"/>
      <point x="679" y="0" type="line"/>
      <point x="679" y="710" type="line"/>
      <point x="644" y="710" type="line"/>
      <point x="644" y="55" type="line"/>
      <point x="122" y="710" type="line"/>
      <point x="96" y="710" type="line"/>
      <point x="96" y="0" type="line"/>
      <point x="131" y="0" type="line"/>
      <point x="131" y="644" type="line"/>
    </contour>
  </outline>
</glyph>
<glyph name="uni015E" format="1">
  <advance width="605"/>
  <unicode hex="015E"/>
  <outline>
    <contour>
      <point x="236" y="-147" type="line"/>
      <point x="261" y="-157"/>
      <point x="295" y="-166"/>
      <point x="331" y="-166" type="curve" smooth="yes"/>
      <point x="386" y="-166"/>
      <point x="418" y="-147"/>
      <point x="418" y="-105" type="curve" smooth="yes"/>
      <point x="418" y="-69"/>
      <point x="393" y="-49"/>
      <point x="348" y="-49" type="curve" smooth="yes"/>
      <point x="338" y="-49"/>
      <point x="320" y="-50"/>
      <point x="307" y="-55" type="curve"/>
      <point x="337" y="-4" type="line"/>
      <point x="478" y="1"/>
      <point x="568" y="63"/>
      <point x="568" y="177" type="curve" smooth="yes"/>
      <point x="568" y="303"/>
      <point x="470" y="339"/>
      <point x="314" y="371" type="curve" smooth="yes"/>
      <point x="162" y="402"/>
      <point x="98" y="428"/>
      <point x="98" y="525" type="curve" smooth="yes"/>
      <point x="98" y="621"/>
      <point x="162" y="683"/>
      <point x="313" y="683" type="curve" smooth="yes"/>
      <point x="397" y="683"/>
      <point x="457" y="662"/>
      <point x="509" y="605" type="curve"/>
      <point x="528" y="631" type="line"/>
      <point x="471" y="689"/>
      <point x="403" y="715"/>
      <point x="312" y="715" type="curve" smooth="yes"/>
      <point x="162" y="715"/>
      <point x="63" y="646"/>
      <point x="63" y="520" type="curve" smooth="yes"/>
      <point x="63" y="403"/>
      <point x="148" y="371"/>
      <point x="302" y="340" type="curve" smooth="yes"/>
      <point x="460" y="308"/>
      <point x="533" y="274"/>
      <point x="533" y="173" type="curve" smooth="yes"/>
      <point x="533" y="74"/>
      <point x="451" y="25"/>
      <point x="318" y="25" type="curve" smooth="yes"/>
      <point x="210" y="25"/>
      <point x="125" y="60"/>
      <point x="59" y="128" type="curve"/>
      <point x="38" y="103" type="line"/>
      <point x="113" y="32"/>
      <point x="199" y="-3"/>
      <point x="308" y="-5" type="curve"/>
      <point x="263" y="-84" type="line"/>
      <point x="281" y="-78"/>
      <point x="316" y="-69"/>
      <point x="344" y="-69" type="curve" smooth="yes"/>
      <point x="373" y="-69"/>
      <point x="393" y="-78"/>
      <point x="393" y="-106" type="curve" smooth="yes"/>
      <point x="393" y="-133"/>
      <point x="373" y="-143"/>
      <point x="335" y="-143" type="curve" smooth="yes"/>
      <point x="301" y="-143"/>
      <point x="267" y="-134"/>
      <point x="248" y="-125" type="curve"/>
    </contour>
  </outline>
</glyph>
<glyph name="uni0163" format="1">
  <advance width="307"/>
  <unicode hex="0163"/>
  <outline>
    <contour>
      <point x="107" y="-147" type="line"/>
      <point x="132" y="-157"/>
      <point x="166" y="-166"/>
      <point x="202" y="-166" type="curve" smooth="yes"/>
      <point x="257" y="-166"/>
      <point x="289" y="-147"/>
      <point x="289" y="-105" type="curve" smooth="yes"/>
      <point x="289" y="-69"/>
      <point x="264" y="-49"/>
      <point x="219" y="-49" type="curve" smooth="yes"/>
      <point x="209" y="-49"/>
      <point x="191" y="-50"/>
      <point x="178" y="-55" type="curve"/>
      <point x="208" y="-4" type="line"/>
      <point x="257" y="-1"/>
      <point x="292" y="22"/>
      <point x="297" y="24" type="curve"/>
      <point x="284" y="52" type="line"/>
      <point x="281" y="49"/>
      <point x="245" y="27"/>
      <point x="202" y="27" type="curve" smooth="yes"/>
      <point x="168" y="27"/>
      <point x="137" y="47"/>
      <point x="134" y="86" type="curve"/>
      <point x="134" y="490" type="line"/>
      <point x="257" y="490" type="line"/>
      <point x="257" y="520" type="line"/>
      <point x="134" y="520" type="line"/>
      <point x="134" y="699" type="line"/>
      <point x="100" y="699" type="line"/>
      <point x="100" y="520" type="line"/>
      <point x="26" y="520" type="line"/>
      <point x="26" y="490" type="line"/>
      <point x="100" y="490" type="line"/>
      <point x="100" y="81" type="line" smooth="yes"/>
      <point x="100" y="33"/>
      <point x="135" y="2"/>
      <point x="179" y="-4" type="curve"/>
      <point x="134" y="-84" type="line"/>
      <point x="152" y="-78"/>
      <point x="187" y="-69"/>
      <point x="215" y="-69" type="curve" smooth="yes"/>
      <point x="244" y="-69"/>
      <point x="264" y="-78"/>
      <point x="264" y="-106" type="curve" smooth="yes"/>
      <point x="264" y="-133"/>
      <point x="244" y="-143"/>
      <point x="206" y="-143" type="curve" smooth="yes"/>
      <point x="172" y="-143"/>
      <point x="138" y="-134"/>
      <point x="119" y="-125" type="curve"/>
    </contour>
  </outline>
</glyph>
<glyph name="tcaron" format="1">
  <advance width="307"/>
  <unicode hex="0165"/>
  <outline>
    <contour>
      <point x="316" y="730" type="line"/>
      <point x="271" y="730" type="line"/>
      <point x="209" y="651" type="line"/>
      <point x="233" y="638" type="line"/>
    </contour>
    <contour>
      <point x="284" y="52" type="line"/>
      <point x="281" y="49"/>
      <point x="245" y="27"/>
      <point x="202" y="27" type="curve" smooth="yes"/>
      <point x="168" y="27"/>
      <point x="137" y="47"/>
      <point x="134" y="86" type="curve"/>
      <point x="134" y="490" type="line"/>
      <point x="257" y="490" type="line"/>
      <point x="257" y="520" type="line"/>
      <point x="134" y="520" type="line"/>
      <point x="134" y="699" type="line"/>
      <point x="100" y="699" type="line"/>
      <point x="100" y="520" type="line"/>
      <point x="26" y="520" type="line"/>
      <point x="26" y="490" type="line"/>
      <point x="100" y="490" type="line"/>
      <point x="100" y="81" type="line" smooth="yes"/>
      <point x="100" y="27"/>
      <point x="144" y="-5"/>
      <point x="196" y="-5" type="curve" smooth="yes"/>
      <point x="251" y="-5"/>
      <point x="292" y="22"/>
      <point x="297" y="24" type="curve"/>
    </contour>
  </outline>
</glyph>
<glyph name="tbar" format="1">
  <advance width="309"/>
  <unicode hex="0167"/>
  <outline>
    <contour>
      <point x="285" y="52" type="line"/>
      <point x="282" y="49"/>
      <point x="246" y="27"/>
      <point x="203" y="27" type="curve" smooth="yes"/>
      <point x="169" y="27"/>
      <point x="138" y="47"/>
      <point x="135" y="86" type="curve"/>
      <point x="135" y="330" type="line"/>
      <point x="258" y="330" type="line"/>
      <point x="258" y="357" type="line"/>
      <point x="135" y="357" type="line"/>
      <point x="135" y="490" type="line"/>
      <point x="258" y="490" type="line"/>
      <point x="258" y="520" type="line"/>
      <point x="135" y="520" type="line"/>
      <point x="135" y="699" type="line"/>
      <point x="101" y="699" type="line"/>
      <point x="101" y="520" type="line"/>
      <point x="27" y="520" type="line"/>
      <point x="27" y="490" type="line"/>
      <point x="101" y="490" type="line"/>
      <point x="101" y="357" type="line"/>
      <point x="27" y="357" type="line"/>
      <point x="27" y="330" type="line"/>
      <point x="101" y="330" type="line"/>
      <point x="101" y="81" type="line" smooth="yes"/>
      <point x="101" y="27"/>
      <point x="145" y="-5"/>
      <point x="197" y="-5" type="curve" smooth="yes"/>
      <point x="252" y="-5"/>
      <point x="293" y="22"/>
      <point x="298" y="24" type="curve"/>
    </contour>
  </outline>
</glyph>
<glyph name="utilde" format="1">
  <advance width="581"/>
  <unicode hex="0169"/>
  <outline>
    <contour>
      <point x="242" y="-10" type="curve" smooth="yes"/>
      <point x="335" y="-10"/>
      <point x="421" y="43"/>
      <point x="466" y="128" type="curve"/>
      <point x="466" y="42" type="line" smooth="yes"/>
      <point x="466" y="18"/>
      <point x="485" y="-1"/>
      <point x="506" y="-1" type="curve" smooth="yes"/>
      <point x="509" y="-1"/>
      <point x="512" y="-1"/>
      <point x="516" y="0" type="curve"/>
      <point x="516" y="32" type="line"/>
      <point x="504" y="32"/>
      <point x="498" y="40"/>
      <point x="498" y="54" type="curve" smooth="yes"/>
      <point x="498" y="520" type="line"/>
      <point x="464" y="520" type="line"/>
      <point x="464" y="190" type="line"/>
      <point x="433" y="91"/>
      <point x="343" y="22"/>
      <point x="249" y="22" type="curve" smooth="yes"/>
      <point x="155" y="22"/>
      <point x="110" y="89"/>
      <point x="110" y="228" type="curve" smooth="yes"/>
      <point x="110" y="520" type="line"/>
      <point x="76" y="520" type="line"/>
      <point x="76" y="224" type="line" smooth="yes"/>
      <point x="76" y="70"/>
      <point x="133" y="-10"/>
    </contour>
    <contour>
      <point x="346" y="656" type="curve" smooth="yes"/>
      <point x="422" y="656"/>
      <point x="432" y="720"/>
      <point x="432" y="730" type="curve"/>
      <point x="406" y="730" type="line"/>
      <point x="406" y="726"/>
      <point x="402" y="682"/>
      <point x="347" y="682" type="curve" smooth="yes"/>
      <point x="297" y="682"/>
      <point x="275" y="721"/>
      <point x="222" y="721" type="curve" smooth="yes"/>
      <point x="153" y="721"/>
      <point x="143" y="655"/>
      <point x="143" y="646" type="curve"/>
      <point x="170" y="646" type="line"/>
      <point x="170" y="652"/>
      <point x="177" y="694"/>
      <point x="220" y="694" type="curve" smooth="yes"/>
      <point x="262" y="694"/>
      <point x="287" y="656"/>
    </contour>
  </outline>
</glyph>
<glyph name="Umacron" format="1">
  <advance width="756"/>
  <unicode hex="016A"/>
  <outline>
    <contour>
      <point x="378" y="28" type="curve" smooth="yes"/>
      <point x="178" y="28"/>
      <point x="120" y="190"/>
      <point x="120" y="354" type="curve" smooth="yes"/>
      <point x="120" y="710" type="line"/>
      <point x="85" y="710" type="line"/>
      <point x="85" y="354" type="line" smooth="yes"/>
      <point x="85" y="175"/>
      <point x="154" y="-5"/>
      <point x="379" y="-5" type="curve" smooth="yes"/>
      <point x="597" y="-5"/>
      <point x="671" y="165"/>
      <point x="671" y="354" type="curve" smooth="yes"/>
      <point x="671" y="710" type="line"/>
      <point x="637" y="710" type="line"/>
      <point x="637" y="354" type="line" smooth="yes"/>
      <point x="637" y="194"/>
      <point x="582" y="28"/>
    </contour>
    <contour>
      <point x="520" y="867" type="line"/>
      <point x="520" y="895" type="line"/>
      <point x="237" y="895" type="line"/>
      <point x="237" y="867" type="line"/>
    </contour>
  </outline>
</glyph>
<glyph name="uring" format="1">
  <advance width="581"/>
  <unicode hex="016F"/>
  <outline>
    <contour>
      <point x="223" y="671" type="curve" smooth="yes"/>
      <point x="223" y="636"/>
      <point x="249" y="611"/>
      <point x="284" y="611" type="curve" smooth="yes"/>
      <point x="320" y="611"/>
      <point x="346" y="636"/>
      <point x="346" y="671" type="curve" smooth="yes"/>
      <point x="346" y="705"/>
      <point x="320" y="730"/>
      <point x="284" y="730" type="curve" smooth="yes"/>
      <point x="249" y="730"/>
      <point x="223" y="705"/>
    </contour>
    <contour>
      <point x="284" y="711" type="curve" smooth="yes"/>
      <point x="307" y="711"/>
      <point x="325" y="695"/>
      <point x="325" y="671" type="curve" smooth="yes"/>
      <point x="325" y="647"/>
      <point x="305" y="630"/>
      <point x="284" y="630" type="curve" smooth="yes"/>
      <point x="261" y="630"/>
      <point x="244" y="648"/>
      <point x="244" y="671" type="curve" smooth="yes"/>
      <point x="244" y="695"/>
      <point x="262" y="711"/>
    </contour>
    <contour>
      <point x="242" y="-10" type="curve" smooth="yes"/>
      <point x="335" y="-10"/>
      <point x="421" y="43"/>
      <point x="466" y="128" type="curve"/>
      <point x="466" y="42" type="line" smooth="yes"/>
      <point x="466" y="18"/>
      <point x="485" y="-1"/>
      <point x="506" y="-1" type="curve" smooth="yes"/>
      <point x="509" y="-1"/>
      <point x="512" y="-1"/>
      <point x="516" y="0" type="curve"/>
      <point x="516" y="32" type="line"/>
      <point x="504" y="32"/>
      <point x="498" y="40"/>
      <point x="498" y="54" type="curve" smooth="yes"/>
      <point x="498" y="520" type="line"/>
      <point x="464" y="520" type="line"/>
      <point x="464" y="190" type="line"/>
      <point x="433" y="91"/>
      <point x="343" y="22"/>
      <point x="249" y="22" type="curve" smooth="yes"/>
      <point x="155" y="22"/>
      <point x="110" y="89"/>
      <point x="110" y="228" type="curve" smooth="yes"/>
      <point x="110" y="520" type="line"/>
      <point x="76" y="520" type="line"/>
      <point x="76" y="224" type="line" smooth="yes"/>
      <point x="76" y="70"/>
      <point x="133" y="-10"/>
    </contour>
  </outline>
</glyph>
<glyph name="Uogonek" format="1">
  <advance width="757"/>
  <unicode hex="0172"/>
  <outline>
    <contour>
      <point x="378" y="28" type="curve" smooth="yes"/>
      <point x="178" y="28"/>
      <point x="120" y="190"/>
      <point x="120" y="354" type="curve" smooth="yes"/>
      <point x="120" y="710" type="line"/>
      <point x="85" y="710" type="line"/>
      <point x="85" y="354" type="line" smooth="yes"/>
      <point x="85" y="181"/>
      <point x="149" y="7"/>
      <point x="357" y="-4" type="curve"/>
      <point x="307" y="-41"/>
      <point x="286" y="-71"/>
      <point x="286" y="-103" type="curve" smooth="yes"/>
      <point x="286" y="-135"/>
      <point x="307" y="-159"/>
      <point x="345" y="-168" type="curve"/>
      <point x="359" y="-145" type="line"/>
      <point x="328" y="-139"/>
      <point x="312" y="-123"/>
      <point x="312" y="-98" type="curve" smooth="yes"/>
      <point x="312" y="-69"/>
      <point x="333" y="-44"/>
      <point x="393" y="-4" type="curve"/>
      <point x="600" y="2"/>
      <point x="671" y="169"/>
      <point x="671" y="354" type="curve" smooth="yes"/>
      <point x="671" y="710" type="line"/>
      <point x="637" y="710" type="line"/>
      <point x="637" y="354" type="line" smooth="yes"/>
      <point x="637" y="194"/>
      <point x="582" y="28"/>
    </contour>
  </outline>
</glyph>
<glyph name="wcircumflex" format="1">
  <advance width="800"/>
  <unicode hex="0175"/>
  <outline>
    <contour>
      <point x="315" y="638" type="line"/>
      <point x="400" y="701" type="line"/>
      <point x="485" y="638" type="line"/>
      <point x="508" y="653" type="line"/>
      <point x="413" y="730" type="line"/>
      <point x="387" y="730" type="line"/>
      <point x="293" y="653" type="line"/>
    </contour>
    <contour>
      <point x="536" y="41" type="line"/>
      <point x="418" y="314" type="line"/>
      <point x="506" y="519" type="line"/>
      <point x="474" y="519" type="line"/>
      <point x="400" y="344" type="line"/>
      <point x="325" y="519" type="line"/>
      <point x="294" y="519" type="line"/>
      <point x="381" y="314" type="line"/>
      <point x="264" y="41" type="line"/>
      <point x="57" y="520" type="line"/>
      <point x="22" y="520" type="line"/>
      <point x="248" y="0" type="line"/>
      <point x="277" y="0" type="line"/>
      <point x="400" y="284" type="line"/>
      <point x="522" y="0" type="line"/>
      <point x="551" y="0" type="line"/>
      <point x="777" y="520" type="line"/>
      <point x="742" y="520" type="line"/>
    </contour>
  </outline>
</glyph>
<glyph name="zdotaccent" format="1">
  <advance width="489"/>
  <unicode hex="017C"/>
  <outline>
    <contour>
      <point x="32" y="0" type="line"/>
      <point x="452" y="0" type="line"/>
      <point x="452" y="29" type="line"/>
      <point x="73" y="29" type="line"/>
      <point x="455" y="492" type="line"/>
      <point x="455" y="520" type="line"/>
      <point x="38" y="520" type="line"/>
      <point x="38" y="491" type="line"/>
      <point x="416" y="491" type="line"/>
      <point x="32" y="28" type="line"/>
    </contour>
    <contour>
      <point x="274" y="647" type="line"/>
      <point x="274" y="730" type="line"/>
      <point x="242" y="730" type="line"/>
      <point x="242" y="647" type="line"/>
    </contour>
  </outline>
</glyph>
<glyph name="florin" format="1">
  <advance width="513"/>
  <unicode hex="0192"/>
  <outline>
    <contour>
      <point x="134" y="-173" type="curve" smooth="yes"/>
      <point x="201" y="-173"/>
      <point x="273" y="-115"/>
      <point x="273" y="-33" type="curve" smooth="yes"/>
      <point x="273" y="429" type="line"/>
      <point x="425" y="429" type="line"/>
      <point x="425" y="459" type="line"/>
      <point x="273" y="459" type="line"/>
      <point x="273" y="539" type="line" smooth="yes"/>
      <point x="273" y="649"/>
      <point x="313" y="709"/>
      <point x="385" y="709" type="curve" smooth="yes"/>
      <point x="415" y="709"/>
      <point x="446" y="699"/>
      <point x="463" y="684" type="curve"/>
      <point x="480" y="706" type="line"/>
      <point x="459" y="726"/>
      <point x="419" y="740"/>
      <point x="381" y="740" type="curve" smooth="yes"/>
      <point x="292" y="740"/>
      <point x="239" y="665"/>
      <point x="239" y="539" type="curve" smooth="yes"/>
      <point x="239" y="459" type="line"/>
      <point x="165" y="459" type="line"/>
      <point x="165" y="429" type="line"/>
      <point x="239" y="429" type="line"/>
      <point x="239" y="-33" type="line" smooth="yes"/>
      <point x="239" y="-94"/>
      <point x="184" y="-141"/>
      <point x="131" y="-141" type="curve" smooth="yes"/>
      <point x="104" y="-141"/>
      <point x="74" y="-136"/>
      <point x="51" y="-116" type="curve"/>
      <point x="30" y="-138" type="line"/>
      <point x="57" y="-164"/>
      <point x="94" y="-173"/>
    </contour>
  </outline>
</glyph>
<glyph name="uni01C6" format="1">
  <advance width="1098"/>
  <unicode hex="01C6"/>
  <outline>
    <contour>
      <point x="760" y="716" type="line"/>
      <point x="854" y="638" type="line"/>
      <point x="880" y="638" type="line"/>
      <point x="975" y="716" type="line"/>
      <point x="952" y="730" type="line"/>
      <point x="867" y="667" type="line"/>
      <point x="782" y="730" type="line"/>
    </contour>
    <contour>
      <point x="641" y="0" type="line"/>
      <point x="1061" y="0" type="line"/>
      <point x="1061" y="29" type="line"/>
      <point x="682" y="29" type="line"/>
      <point x="1064" y="492" type="line"/>
      <point x="1064" y="520" type="line"/>
      <point x="647" y="520" type="line"/>
      <point x="647" y="491" type="line"/>
      <point x="1025" y="491" type="line"/>
      <point x="641" y="28" type="line"/>
    </contour>
    <contour>
      <point x="294" y="-10" type="curve" smooth="yes"/>
      <point x="372" y="-10"/>
      <point x="451" y="37"/>
      <point x="494" y="106" type="curve"/>
      <point x="494" y="43" type="line" smooth="yes"/>
      <point x="494" y="21"/>
      <point x="512" y="-1"/>
      <point x="536" y="-1" type="curve" smooth="yes"/>
      <point x="538" y="-1"/>
      <point x="541" y="-1"/>
      <point x="544" y="0" type="curve"/>
      <point x="544" y="32" type="line"/>
      <point x="532" y="32"/>
      <point x="526" y="40"/>
      <point x="526" y="54" type="curve" smooth="yes"/>
      <point x="526" y="730" type="line"/>
      <point x="492" y="730" type="line"/>
      <point x="492" y="402" type="line"/>
      <point x="451" y="470"/>
      <point x="377" y="528"/>
      <point x="284" y="528" type="curve" smooth="yes"/>
      <point x="146" y="528"/>
      <point x="44" y="402"/>
      <point x="44" y="258" type="curve" smooth="yes"/>
      <point x="44" y="123"/>
      <point x="149" y="-10"/>
    </contour>
    <contour>
      <point x="298" y="22" type="curve" smooth="yes"/>
      <point x="176" y="22"/>
      <point x="79" y="133"/>
      <point x="79" y="258" type="curve" smooth="yes"/>
      <point x="79" y="377"/>
      <point x="161" y="496"/>
      <point x="289" y="496" type="curve" smooth="yes"/>
      <point x="370" y="496"/>
      <point x="463" y="431"/>
      <point x="492" y="351" type="curve"/>
      <point x="492" y="172" type="line"/>
      <point x="485" y="91"/>
      <point x="376" y="22"/>
    </contour>
  </outline>
</glyph>
<glyph name="uni01C9" format="1">
  <advance width="452"/>
  <unicode hex="01C9"/>
  <outline>
    <contour>
      <point x="232" y="-173" type="curve" smooth="yes"/>
      <point x="299" y="-173"/>
      <point x="371" y="-114"/>
      <point x="371" y="-32" type="curve" smooth="yes"/>
      <point x="371" y="520" type="line"/>
      <point x="337" y="520" type="line"/>
      <point x="337" y="-33" type="line" smooth="yes"/>
      <point x="337" y="-94"/>
      <point x="282" y="-141"/>
      <point x="229" y="-141" type="curve" smooth="yes"/>
      <point x="202" y="-141"/>
      <point x="172" y="-136"/>
      <point x="149" y="-116" type="curve"/>
      <point x="128" y="-138" type="line"/>
      <point x="155" y="-164"/>
      <point x="192" y="-173"/>
    </contour>
    <contour>
      <point x="371" y="646" type="line"/>
      <point x="371" y="730" type="line"/>
      <point x="337" y="730" type="line"/>
      <point x="337" y="646" type="line"/>
    </contour>
    <contour>
      <point x="87" y="82" type="line"/>
      <point x="87" y="29"/>
      <point x="121" y="-5"/>
      <point x="172" y="-5" type="curve" smooth="yes"/>
      <point x="193" y="-5"/>
      <point x="228" y="1"/>
      <point x="248" y="8" type="curve"/>
      <point x="240" y="36" type="line"/>
      <point x="223" y="30"/>
      <point x="200" y="26"/>
      <point x="185" y="26" type="curve" smooth="yes"/>
      <point x="146" y="26"/>
      <point x="120" y="50"/>
      <point x="120" y="89" type="curve" smooth="yes"/>
      <point x="120" y="730" type="line"/>
      <point x="87" y="730" type="line"/>
    </contour>
  </outline>
</glyph>
<glyph name="uni01CC" format="1">
  <advance width="775"/>
  <unicode hex="01CC"/>
  <outline>
    <contour>
      <point x="554" y="-173" type="curve" smooth="yes"/>
      <point x="621" y="-173"/>
      <point x="693" y="-114"/>
      <point x="693" y="-32" type="curve" smooth="yes"/>
      <point x="693" y="520" type="line"/>
      <point x="659" y="520" type="line"/>
      <point x="659" y="-33" type="line" smooth="yes"/>
      <point x="659" y="-94"/>
      <point x="604" y="-141"/>
      <point x="551" y="-141" type="curve" smooth="yes"/>
      <point x="524" y="-141"/>
      <point x="494" y="-136"/>
      <point x="471" y="-116" type="curve"/>
      <point x="450" y="-138" type="line"/>
      <point x="477" y="-164"/>
      <point x="514" y="-173"/>
    </contour>
    <contour>
      <point x="693" y="646" type="line"/>
      <point x="693" y="730" type="line"/>
      <point x="659" y="730" type="line"/>
      <point x="659" y="646" type="line"/>
    </contour>
    <contour>
      <point x="495" y="294" type="line" smooth="yes"/>
      <point x="495" y="449"/>
      <point x="449" y="528"/>
      <point x="340" y="528" type="curve" smooth="yes"/>
      <point x="247" y="528"/>
      <point x="156" y="472"/>
      <point x="114" y="390" type="curve"/>
      <point x="114" y="520" type="line"/>
      <point x="81" y="520" type="line"/>
      <point x="81" y="0" type="line"/>
      <point x="115" y="0" type="line"/>
      <point x="115" y="325" type="line"/>
      <point x="143" y="423"/>
      <point x="240" y="496"/>
      <point x="334" y="496" type="curve" smooth="yes"/>
      <point x="422" y="496"/>
      <point x="461" y="432"/>
      <point x="461" y="290" type="curve" smooth="yes"/>
      <point x="461" y="0" type="line"/>
      <point x="495" y="0" type="line"/>
    </contour>
  </outline>
</glyph>
<glyph name="Oogonek" format="1">
  <advance width="755"/>
  <unicode hex="01EA"/>
  <outline>
    <contour>
      <point x="345" y="-168" type="curve"/>
      <point x="359" y="-145" type="line"/>
      <point x="328" y="-139"/>
      <point x="312" y="-123"/>
      <point x="312" y="-98" type="curve" smooth="yes"/>
      <point x="312" y="-69"/>
      <point x="334" y="-44"/>
      <point x="393" y="-4" type="curve"/>
      <point x="573" y="4"/>
      <point x="709" y="169"/>
      <point x="709" y="355" type="curve" smooth="yes"/>
      <point x="709" y="532"/>
      <point x="575" y="715"/>
      <point x="378" y="715" type="curve" smooth="yes"/>
      <point x="190" y="715"/>
      <point x="46" y="544"/>
      <point x="46" y="355" type="curve" smooth="yes"/>
      <point x="46" y="179"/>
      <point x="172" y="9"/>
      <point x="357" y="-4" type="curve"/>
      <point x="307" y="-41"/>
      <point x="286" y="-71"/>
      <point x="286" y="-103" type="curve" smooth="yes"/>
      <point x="286" y="-135"/>
      <point x="307" y="-159"/>
    </contour>
    <contour>
      <point x="81" y="355" type="curve" smooth="yes"/>
      <point x="81" y="517"/>
      <point x="200" y="682"/>
      <point x="378" y="682" type="curve" smooth="yes"/>
      <point x="547" y="682"/>
      <point x="674" y="525"/>
      <point x="674" y="355" type="curve" smooth="yes"/>
      <point x="674" y="194"/>
      <point x="556" y="28"/>
      <point x="378" y="28" type="curve" smooth="yes"/>
      <point x="205" y="28"/>
      <point x="81" y="185"/>
    </contour>
  </outline>
</glyph>
<glyph name="oogonek" format="1">
  <advance width="589"/>
  <unicode hex="01EB"/>
  <outline>
    <contour>
      <point x="273" y="-172" type="curve"/>
      <point x="287" y="-149" type="line"/>
      <point x="256" y="-143"/>
      <point x="240" y="-127"/>
      <point x="240" y="-102" type="curve" smooth="yes"/>
      <point x="240" y="-73"/>
      <point x="262" y="-48"/>
      <point x="321" y="-8" type="curve"/>
      <point x="449" y="6"/>
      <point x="545" y="122"/>
      <point x="545" y="258" type="curve" smooth="yes"/>
      <point x="545" y="404"/>
      <point x="433" y="528"/>
      <point x="294" y="528" type="curve" smooth="yes"/>
      <point x="156" y="528"/>
      <point x="44" y="404"/>
      <point x="44" y="258" type="curve" smooth="yes"/>
      <point x="44" y="117"/>
      <point x="147" y="-4"/>
      <point x="283" y="-10" type="curve"/>
      <point x="234" y="-46"/>
      <point x="214" y="-76"/>
      <point x="214" y="-107" type="curve" smooth="yes"/>
      <point x="214" y="-139"/>
      <point x="235" y="-163"/>
    </contour>
    <contour>
      <point x="78" y="257" type="curve" smooth="yes"/>
      <point x="78" y="387"/>
      <point x="177" y="496"/>
      <point x="294" y="496" type="curve" smooth="yes"/>
      <point x="412" y="496"/>
      <point x="510" y="388"/>
      <point x="510" y="259" type="curve" smooth="yes"/>
      <point x="510" y="130"/>
      <point x="412" y="22"/>
      <point x="293" y="22" type="curve" smooth="yes"/>
      <point x="175" y="22"/>
      <point x="78" y="128"/>
    </contour>
  </outline>
</glyph>
<glyph name="uni01F1" format="1">
  <advance width="1320"/>
  <unicode hex="01F1"/>
  <outline>
    <contour>
      <point x="724" y="0" type="line"/>
      <point x="1287" y="0" type="line"/>
      <point x="1287" y="32" type="line"/>
      <point x="767" y="32" type="line"/>
      <point x="1290" y="680" type="line"/>
      <point x="1290" y="710" type="line"/>
      <point x="730" y="710" type="line"/>
      <point x="730" y="678" type="line"/>
      <point x="1249" y="678" type="line"/>
      <point x="724" y="30" type="line"/>
    </contour>
    <contour>
      <point x="328" y="0" type="line"/>
      <point x="533" y="0"/>
      <point x="663" y="141"/>
      <point x="663" y="356" type="curve" smooth="yes"/>
      <point x="663" y="552"/>
      <point x="552" y="710"/>
      <point x="328" y="710" type="curve" smooth="yes"/>
      <point x="96" y="710" type="line"/>
      <point x="96" y="0" type="line"/>
    </contour>
    <contour>
      <point x="628" y="356" type="curve" smooth="yes"/>
      <point x="628" y="172"/>
      <point x="525" y="32"/>
      <point x="328" y="32" type="curve" smooth="yes"/>
      <point x="131" y="32" type="line"/>
      <point x="131" y="678" type="line"/>
      <point x="328" y="678" type="line" smooth="yes"/>
      <point x="521" y="678"/>
      <point x="628" y="543"/>
    </contour>
  </outline>
</glyph>
<glyph name="uni01F2" format="1">
  <advance width="1201"/>
  <unicode hex="01F2"/>
  <outline>
    <contour>
      <point x="744" y="0" type="line"/>
      <point x="1164" y="0" type="line"/>
      <point x="1164" y="29" type="line"/>
      <point x="785" y="29" type="line"/>
      <point x="1167" y="492" type="line"/>
      <point x="1167" y="520" type="line"/>
      <point x="750" y="520" type="line"/>
      <point x="750" y="491" type="line"/>
      <point x="1128" y="491" type="line"/>
      <point x="744" y="28" type="line"/>
    </contour>
    <contour>
      <point x="328" y="0" type="line"/>
      <point x="533" y="0"/>
      <point x="663" y="141"/>
      <point x="663" y="356" type="curve" smooth="yes"/>
      <point x="663" y="552"/>
      <point x="552" y="710"/>
      <point x="328" y="710" type="curve" smooth="yes"/>
      <point x="96" y="710" type="line"/>
      <point x="96" y="0" type="line"/>
    </contour>
    <contour>
      <point x="628" y="356" type="curve" smooth="yes"/>
      <point x="628" y="172"/>
      <point x="525" y="32"/>
      <point x="328" y="32" type="curve" smooth="yes"/>
      <point x="131" y="32" type="line"/>
      <point x="131" y="678" type="line"/>
      <point x="328" y="678" type="line" smooth="yes"/>
      <point x="521" y="678"/>
      <point x="628" y="543"/>
    </contour>
  </outline>
</glyph>
<glyph name="adblgrave" format="1">
  <advance width="530"/>
  <unicode hex="0201"/>
  <outline>
    <contour>
      <point x="207" y="-10" type="curve" smooth="yes"/>
      <point x="295" y="-10"/>
      <point x="375" y="26"/>
      <point x="423" y="88" type="curve"/>
      <point x="423" y="42" type="line" smooth="yes"/>
      <point x="423" y="18"/>
      <point x="441" y="-1"/>
      <point x="463" y="-1" type="curve" smooth="yes"/>
      <point x="465" y="-1"/>
      <point x="469" y="-1"/>
      <point x="473" y="0" type="curve"/>
      <point x="473" y="32" type="line"/>
      <point x="461" y="32"/>
      <point x="455" y="39"/>
      <point x="455" y="54" type="curve" smooth="yes"/>
      <point x="455" y="326" type="line" smooth="yes"/>
      <point x="455" y="450"/>
      <point x="379" y="528"/>
      <point x="259" y="528" type="curve" smooth="yes"/>
      <point x="202" y="528"/>
      <point x="140" y="505"/>
      <point x="74" y="460" type="curve"/>
      <point x="90" y="435" type="line"/>
      <point x="147" y="476"/>
      <point x="206" y="499"/>
      <point x="257" y="499" type="curve" smooth="yes"/>
      <point x="356" y="499"/>
      <point x="421" y="431"/>
      <point x="421" y="328" type="curve" smooth="yes"/>
      <point x="421" y="272" type="line"/>
      <point x="373" y="290"/>
      <point x="310" y="300"/>
      <point x="252" y="300" type="curve" smooth="yes"/>
      <point x="126" y="300"/>
      <point x="37" y="238"/>
      <point x="37" y="150" type="curve" smooth="yes"/>
      <point x="37" y="60"/>
      <point x="112" y="-10"/>
    </contour>
    <contour>
      <point x="211" y="19" type="curve" smooth="yes"/>
      <point x="132" y="19"/>
      <point x="70" y="77"/>
      <point x="70" y="151" type="curve" smooth="yes"/>
      <point x="70" y="225"/>
      <point x="145" y="274"/>
      <point x="255" y="274" type="curve" smooth="yes"/>
      <point x="314" y="274"/>
      <point x="369" y="264"/>
      <point x="421" y="244" type="curve"/>
      <point x="421" y="146" type="line" smooth="yes"/>
      <point x="421" y="77"/>
      <point x="309" y="19"/>
    </contour>
    <contour>
      <point x="315" y="638" type="line"/>
      <point x="337" y="651" type="line"/>
      <point x="275" y="730" type="line"/>
      <point x="233" y="730" type="line"/>
    </contour>
    <contour>
      <point x="208" y="638" type="line"/>
      <point x="230" y="651" type="line"/>
      <point x="168" y="730" type="line"/>
      <point x="125" y="730" type="line"/>
    </contour>
  </outline>
</glyph>
<glyph name="Edblgrave" format="1">
  <advance width="615"/>
  <unicode hex="0204"/>
  <outline>
    <contour>
      <point x="387" y="826" type="line"/>
      <point x="409" y="839" type="line"/>
      <point x="347" y="918" type="line"/>
      <point x="305" y="918" type="line"/>
    </contour>
    <contour>
      <point x="280" y="826" type="line"/>
      <point x="302" y="839" type="line"/>
      <point x="240" y="918" type="line"/>
      <point x="197" y="918" type="line"/>
    </contour>
    <contour>
      <point x="131" y="32" type="line"/>
      <point x="131" y="347" type="line"/>
      <point x="503" y="347" type="line"/>
      <point x="503" y="379" type="line"/>
      <point x="131" y="379" type="line"/>
      <point x="131" y="678" type="line"/>
      <point x="556" y="678" type="line"/>
      <point x="556" y="710" type="line"/>
      <point x="96" y="710" type="line"/>
      <point x="96" y="0" type="line"/>
      <point x="565" y="0" type="line"/>
      <point x="565" y="32" type="line"/>
    </contour>
  </outline>
</glyph>
<glyph name="Einvertedbreve" format="1">
  <advance width="615"/>
  <unicode hex="0206"/>
  <outline>
    <contour>
      <point x="330" y="896" type="curve" smooth="yes"/>
      <point x="357" y="896"/>
      <point x="382" y="868"/>
      <point x="386" y="834" type="curve"/>
      <point x="411" y="834" type="line"/>
      <point x="411" y="880"/>
      <point x="373" y="918"/>
      <point x="330" y="918" type="curve" smooth="yes"/>
      <point x="286" y="918"/>
      <point x="249" y="880"/>
      <point x="249" y="834" type="curve"/>
      <point x="275" y="834" type="line"/>
      <point x="275" y="865"/>
      <point x="302" y="896"/>
    </contour>
    <contour>
      <point x="131" y="32" type="line"/>
      <point x="131" y="347" type="line"/>
      <point x="503" y="347" type="line"/>
      <point x="503" y="379" type="line"/>
      <point x="131" y="379" type="line"/>
      <point x="131" y="678" type="line"/>
      <point x="556" y="678" type="line"/>
      <point x="556" y="710" type="line"/>
      <point x="96" y="710" type="line"/>
      <point x="96" y="0" type="line"/>
      <point x="565" y="0" type="line"/>
      <point x="565" y="32" type="line"/>
    </contour>
  </outline>
</glyph>
<glyph name="idblgrave" format="1">
  <advance width="197"/>
  <unicode hex="0209"/>
  <outline>
    <contour>
      <point x="154" y="638" type="line"/>
      <point x="176" y="651" type="line"/>
      <point x="114" y="730" type="line"/>
      <point x="72" y="730" type="line"/>
    </contour>
    <contour>
      <point x="47" y="638" type="line"/>
      <point x="69" y="651" type="line"/>
      <point x="7" y="730" type="line"/>
      <point x="-36" y="730" type="line"/>
    </contour>
    <contour>
      <point x="115" y="0" type="line"/>
      <point x="115" y="520" type="line"/>
      <point x="81" y="520" type="line"/>
      <point x="81" y="0" type="line"/>
    </contour>
  </outline>
</glyph>
<glyph name="Iinvertedbreve" format="1">
  <advance width="227"/>
  <unicode hex="020A"/>
  <outline>
    <contour>
      <point x="131" y="0" type="line"/>
      <point x="131" y="710" type="line"/>
      <point x="96" y="710" type="line"/>
      <point x="96" y="0" type="line"/>
    </contour>
    <contour>
      <point x="113" y="896" type="curve" smooth="yes"/>
      <point x="140" y="896"/>
      <point x="165" y="868"/>
      <point x="169" y="834" type="curve"/>
      <point x="194" y="834" type="line"/>
      <point x="194" y="880"/>
      <point x="156" y="918"/>
      <point x="113" y="918" type="curve" smooth="yes"/>
      <point x="69" y="918"/>
      <point x="32" y="880"/>
      <point x="32" y="834" type="curve"/>
      <point x="58" y="834" type="line"/>
      <point x="58" y="865"/>
      <point x="85" y="896"/>
    </contour>
  </outline>
</glyph>
<glyph name="odblgrave" format="1">
  <advance width="589"/>
  <unicode hex="020D"/>
  <outline>
    <contour>
      <point x="352" y="638" type="line"/>
      <point x="374" y="651" type="line"/>
      <point x="312" y="730" type="line"/>
      <point x="270" y="730" type="line"/>
    </contour>
    <contour>
      <point x="245" y="638" type="line"/>
      <point x="267" y="651" type="line"/>
      <point x="205" y="730" type="line"/>
      <point x="162" y="730" type="line"/>
    </contour>
    <contour>
      <point x="294" y="-10" type="curve" smooth="yes"/>
      <point x="435" y="-10"/>
      <point x="545" y="113"/>
      <point x="545" y="258" type="curve" smooth="yes"/>
      <point x="545" y="404"/>
      <point x="433" y="528"/>
      <point x="294" y="528" type="curve" smooth="yes"/>
      <point x="156" y="528"/>
      <point x="44" y="404"/>
      <point x="44" y="258" type="curve" smooth="yes"/>
      <point x="44" y="113"/>
      <point x="153" y="-10"/>
    </contour>
    <contour>
      <point x="78" y="257" type="curve" smooth="yes"/>
      <point x="78" y="387"/>
      <point x="177" y="496"/>
      <point x="294" y="496" type="curve" smooth="yes"/>
      <point x="412" y="496"/>
      <point x="510" y="388"/>
      <point x="510" y="259" type="curve" smooth="yes"/>
      <point x="510" y="130"/>
      <point x="412" y="22"/>
      <point x="293" y="22" type="curve" smooth="yes"/>
      <point x="175" y="22"/>
      <point x="78" y="128"/>
    </contour>
  </outline>
</glyph>
<glyph name="Oinvertedbreve" format="1">
  <advance width="755"/>
  <unicode hex="020E"/>
  <outline>
    <contour>
      <point x="376" y="896" type="curve" smooth="yes"/>
      <point x="403" y="896"/>
      <point x="428" y="868"/>
      <point x="432" y="834" type="curve"/>
      <point x="457" y="834" type="line"/>
      <point x="457" y="880"/>
      <point x="419" y="918"/>
      <point x="376" y="918" type="curve" smooth="yes"/>
      <point x="332" y="918"/>
      <point x="295" y="880"/>
      <point x="295" y="834" type="curve"/>
      <point x="321" y="834" type="line"/>
      <point x="321" y="865"/>
      <point x="348" y="896"/>
    </contour>
    <contour>
      <point x="378" y="-5" type="curve" smooth="yes"/>
      <point x="565" y="-5"/>
      <point x="709" y="164"/>
      <point x="709" y="355" type="curve" smooth="yes"/>
      <point x="709" y="532"/>
      <point x="575" y="715"/>
      <point x="378" y="715" type="curve" smooth="yes"/>
      <point x="190" y="715"/>
      <point x="46" y="544"/>
      <point x="46" y="355" type="curve" smooth="yes"/>
      <point x="46" y="173"/>
      <point x="181" y="-4"/>
    </contour>
    <contour>
      <point x="81" y="355" type="curve" smooth="yes"/>
      <point x="81" y="517"/>
      <point x="200" y="682"/>
      <point x="378" y="682" type="curve" smooth="yes"/>
      <point x="547" y="682"/>
      <point x="674" y="525"/>
      <point x="674" y="355" type="curve" smooth="yes"/>
      <point x="674" y="194"/>
      <point x="556" y="28"/>
      <point x="378" y="28" type="curve" smooth="yes"/>
      <point x="205" y="28"/>
      <point x="81" y="185"/>
    </contour>
  </outline>
</glyph>
<glyph name="rdblgrave" format="1">
  <advance width="331"/>
  <unicode hex="0211"/>
  <outline>
    <contour>
      <point x="248" y="638" type="line"/>
      <point x="270" y="651" type="line"/>
      <point x="208" y="730" type="line"/>
      <point x="166" y="730" type="line"/>
    </contour>
    <contour>
      <point x="141" y="638" type="line"/>
      <point x="163" y="651" type="line"/>
      <point x="101" y="730" type="line"/>
      <point x="58" y="730" type="line"/>
    </contour>
    <contour>
      <point x="314" y="520" type="line"/>
      <point x="307" y="520"/>
      <point x="295" y="520"/>
      <point x="282" y="519" type="curve" smooth="yes"/>
      <point x="215" y="511"/>
      <point x="150" y="461"/>
      <point x="114" y="388" type="curve"/>
      <point x="114" y="520" type="line"/>
      <point x="81" y="520" type="line"/>
      <point x="81" y="0" type="line"/>
      <point x="115" y="0" type="line"/>
      <point x="115" y="327" type="line"/>
      <point x="143" y="424"/>
      <point x="218" y="484"/>
      <point x="314" y="488" type="curve"/>
    </contour>
  </outline>
</glyph>
<glyph name="rinvertedbreve" format="1">
  <advance width="331"/>
  <unicode hex="0213"/>
  <outline>
    <contour>
      <point x="190" y="708" type="curve" smooth="yes"/>
      <point x="217" y="708"/>
      <point x="242" y="680"/>
      <point x="246" y="646" type="curve"/>
      <point x="271" y="646" type="line"/>
      <point x="271" y="692"/>
      <point x="233" y="730"/>
      <point x="190" y="730" type="curve" smooth="yes"/>
      <point x="146" y="730"/>
      <point x="109" y="692"/>
      <point x="109" y="646" type="curve"/>
      <point x="135" y="646" type="line"/>
      <point x="135" y="677"/>
      <point x="162" y="708"/>
    </contour>
    <contour>
      <point x="314" y="520" type="line"/>
      <point x="307" y="520"/>
      <point x="295" y="520"/>
      <point x="282" y="519" type="curve" smooth="yes"/>
      <point x="215" y="511"/>
      <point x="150" y="461"/>
      <point x="114" y="388" type="curve"/>
      <point x="114" y="520" type="line"/>
      <point x="81" y="520" type="line"/>
      <point x="81" y="0" type="line"/>
      <point x="115" y="0" type="line"/>
      <point x="115" y="327" type="line"/>
      <point x="143" y="424"/>
      <point x="218" y="484"/>
      <point x="314" y="488" type="curve"/>
    </contour>
  </outline>
</glyph>
<glyph name="dotlessj" format="1">
  <advance width="197"/>
  <unicode hex="0237"/>
  <outline>
    <contour>
      <point x="98" y="520" type="move" name="top"/>
    </contour>
    <contour>
      <point x="-24" y="-173" type="curve" smooth="yes"/>
      <point x="43" y="-173"/>
      <point x="115" y="-114"/>
      <point x="115" y="-32" type="curve" smooth="yes"/>
      <point x="115" y="520" type="line"/>
      <point x="81" y="520" type="line"/>
      <point x="81" y="-33" type="line" smooth="yes"/>
      <point x="81" y="-94"/>
      <point x="26" y="-141"/>
      <point x="-27" y="-141" type="curve" smooth="yes"/>
      <point x="-54" y="-141"/>
      <point x="-84" y="-136"/>
      <point x="-107" y="-116" type="curve"/>
      <point x="-128" y="-138" type="line"/>
      <point x="-101" y="-164"/>
      <point x="-64" y="-173"/>
    </contour>
  </outline>
</glyph>
<glyph name="ogonek" format="1">
  <advance width="214"/>
  <unicode hex="02DB"/>
  <outline>
    <contour>
      <point x="143" y="0" type="move" name="_bottom"/>
    </contour>
    <contour>
      <point x="109" y="-164" type="curve"/>
      <point x="123" y="-141" type="line"/>
      <point x="92" y="-135"/>
      <point x="76" y="-119"/>
      <point x="76" y="-94" type="curve" smooth="yes"/>
      <point x="76" y="-65"/>
      <point x="98" y="-40"/>
      <point x="158" y="0" type="curve"/>
      <point x="143" y="15" type="line"/>
      <point x="77" y="-30"/>
      <point x="50" y="-63"/>
      <point x="50" y="-99" type="curve" smooth="yes"/>
      <point x="50" y="-131"/>
      <point x="71" y="-155"/>
    </contour>
  </outline>
</glyph>
<glyph name="uni0406" format="1">
  <advance width="227"/>
  <unicode hex="0406"/>
  <outline>
    <contour>
      <point x="131" y="0" type="line"/>
      <point x="131" y="710" type="line"/>
      <point x="96" y="710" type="line"/>
      <point x="96" y="0" type="line"/>
    </contour>
  </outline>
</glyph>
<glyph name="uni040D" format="1">
  <advance width="742"/>
  <unicode hex="040D"/>
  <outline>
    <contour>
      <point x="389" y="826" type="line"/>
      <point x="413" y="839" type="line"/>
      <point x="350" y="918" type="line"/>
      <point x="306" y="918" type="line"/>
    </contour>
    <contour>
      <point x="131" y="710" type="line"/>
      <point x="97" y="710" type="line"/>
      <point x="97" y="0" type="line"/>
      <point x="133" y="0" type="line"/>
      <point x="616" y="650" type="line"/>
      <point x="616" y="0" type="line"/>
      <point x="651" y="0" type="line"/>
      <point x="651" y="710" type="line"/>
      <point x="621" y="710" type="line"/>
      <point x="131" y="50" type="line"/>
    </contour>
  </outline>
</glyph>
<glyph name="uni0414" format="1">
  <advance width="688"/>
  <unicode hex="0414"/>
  <outline>
    <contour>
      <point x="16" y="-185" type="line"/>
      <point x="49" y="-185" type="line"/>
      <point x="49" y="0" type="line"/>
      <point x="630" y="0" type="line"/>
      <point x="630" y="-185" type="line"/>
      <point x="662" y="-185" type="line"/>
      <point x="662" y="32" type="line"/>
      <point x="576" y="32" type="line"/>
      <point x="576" y="710" type="line"/>
      <point x="210" y="710" type="line"/>
      <point x="196" y="548" type="line" smooth="yes"/>
      <point x="158" y="104"/>
      <point x="115" y="49"/>
      <point x="42" y="32" type="curve"/>
      <point x="16" y="32" type="line"/>
    </contour>
    <contour>
      <point x="104" y="32" type="line"/>
      <point x="174" y="70"/>
      <point x="205" y="222"/>
      <point x="230" y="539" type="curve" smooth="yes"/>
      <point x="241" y="678" type="line"/>
      <point x="542" y="678" type="line"/>
      <point x="542" y="32" type="line"/>
    </contour>
  </outline>
</glyph>
<glyph name="uni041B" format="1">
  <advance width="637"/>
  <unicode hex="041B"/>
  <outline>
    <contour>
      <point x="235" y="678" type="line"/>
      <point x="506" y="678" type="line"/>
      <point x="506" y="0" type="line"/>
      <point x="540" y="0" type="line"/>
      <point x="540" y="710" type="line"/>
      <point x="203" y="710" type="line"/>
      <point x="190" y="548" type="line" smooth="yes"/>
      <point x="153" y="110"/>
      <point x="79" y="33"/>
      <point x="5" y="32" type="curve"/>
      <point x="9" y="-1" type="line"/>
      <point x="127" y="-1"/>
      <point x="191" y="146"/>
      <point x="223" y="539" type="curve" smooth="yes"/>
    </contour>
  </outline>
</glyph>
<glyph name="uni041C" format="1">
  <advance width="883"/>
  <unicode hex="041C"/>
  <outline>
    <contour>
      <point x="786" y="0" type="line"/>
      <point x="786" y="710" type="line"/>
      <point x="754" y="710" type="line"/>
      <point x="441" y="181" type="line"/>
      <point x="128" y="710" type="line"/>
      <point x="96" y="710" type="line"/>
      <point x="96" y="0" type="line"/>
      <point x="131" y="0" type="line"/>
      <point x="131" y="642" type="line"/>
      <point x="429" y="138" type="line"/>
      <point x="453" y="138" type="line"/>
      <point x="751" y="642" type="line"/>
      <point x="751" y="0" type="line"/>
    </contour>
  </outline>
</glyph>
<glyph name="uni0425" format="1">
  <advance width="624"/>
  <unicode hex="0425"/>
  <outline>
    <contour>
      <point x="9" y="710" type="line"/>
      <point x="292" y="350" type="line"/>
      <point x="17" y="0" type="line"/>
      <point x="59" y="0" type="line"/>
      <point x="313" y="324" type="line"/>
      <point x="567" y="0" type="line"/>
      <point x="607" y="0" type="line"/>
      <point x="332" y="350" type="line"/>
      <point x="615" y="710" type="line"/>
      <point x="575" y="710" type="line"/>
      <point x="313" y="376" type="line"/>
      <point x="51" y="710" type="line"/>
    </contour>
  </outline>
</glyph>
<glyph name="uni0439" format="1">
  <advance width="582"/>
  <unicode hex="0439"/>
  <outline>
    <contour>
      <point x="384" y="692" type="line"/>
      <point x="377" y="661"/>
      <point x="357" y="642"/>
      <point x="291" y="642" type="curve" smooth="yes"/>
      <point x="225" y="642"/>
      <point x="199" y="663"/>
      <point x="199" y="692" type="curve"/>
      <point x="174" y="692" type="line"/>
      <point x="175" y="651"/>
      <point x="211" y="621"/>
      <point x="291" y="621" type="curve" smooth="yes"/>
      <point x="371" y="621"/>
      <point x="407" y="651"/>
      <point x="408" y="692" type="curve"/>
    </contour>
    <contour>
      <point x="115" y="519" type="line"/>
      <point x="82" y="519" type="line"/>
      <point x="82" y="0" type="line"/>
      <point x="116" y="0" type="line"/>
      <point x="467" y="464" type="line"/>
      <point x="467" y="0" type="line"/>
      <point x="500" y="0" type="line"/>
      <point x="500" y="520" type="line"/>
      <point x="472" y="520" type="line"/>
      <point x="115" y="48" type="line"/>
    </contour>
  </outline>
</glyph>
<glyph name="uni0443" format="1">
  <advance width="538"/>
  <unicode hex="0443"/>
  <outline>
    <contour>
      <point x="76" y="-202" type="line"/>
      <point x="90" y="-214"/>
      <point x="112" y="-221"/>
      <point x="135" y="-221" type="curve" smooth="yes"/>
      <point x="179" y="-221"/>
      <point x="210" y="-191"/>
      <point x="245" y="-110" type="curve" smooth="yes"/>
      <point x="514" y="520" type="line"/>
      <point x="480" y="520" type="line"/>
      <point x="274" y="36" type="line"/>
      <point x="55" y="520" type="line"/>
      <point x="19" y="520" type="line"/>
      <point x="256" y="0" type="line"/>
      <point x="194" y="-157"/>
      <point x="172" y="-190"/>
      <point x="134" y="-190" type="curve" smooth="yes"/>
      <point x="115" y="-190"/>
      <point x="98" y="-184"/>
      <point x="83" y="-171" type="curve"/>
    </contour>
  </outline>
</glyph>
<glyph name="uni0444" format="1">
  <advance width="678"/>
  <unicode hex="0444"/>
  <outline>
    <contour>
      <point x="356" y="730" type="line"/>
      <point x="322" y="730" type="line"/>
      <point x="322" y="527" type="line"/>
      <point x="153" y="519"/>
      <point x="44" y="410"/>
      <point x="44" y="257" type="curve" smooth="yes"/>
      <point x="44" y="97"/>
      <point x="160" y="-3"/>
      <point x="322" y="-10" type="curve"/>
      <point x="322" y="-213" type="line"/>
      <point x="356" y="-213" type="line"/>
      <point x="356" y="-9" type="line"/>
      <point x="518" y="-2"/>
      <point x="634" y="97"/>
      <point x="634" y="257" type="curve" smooth="yes"/>
      <point x="634" y="411"/>
      <point x="524" y="520"/>
      <point x="356" y="526" type="curve"/>
    </contour>
    <contour>
      <point x="322" y="23" type="line"/>
      <point x="180" y="29"/>
      <point x="79" y="118"/>
      <point x="79" y="259" type="curve" smooth="yes"/>
      <point x="79" y="397"/>
      <point x="176" y="486"/>
      <point x="322" y="492" type="curve"/>
    </contour>
    <contour>
      <point x="356" y="492" type="line"/>
      <point x="502" y="486"/>
      <point x="599" y="397"/>
      <point x="599" y="259" type="curve" smooth="yes"/>
      <point x="599" y="118"/>
      <point x="499" y="29"/>
      <point x="356" y="23" type="curve"/>
    </contour>
  </outline>
</glyph>
<glyph name="uni044D" format="1">
  <advance width="540"/>
  <unicode hex="044D"/>
  <outline>
    <contour>
      <point x="246" y="-9" type="curve" smooth="yes"/>
      <point x="395" y="-9"/>
      <point x="496" y="128"/>
      <point x="496" y="263" type="curve" smooth="yes"/>
      <point x="496" y="392"/>
      <point x="404" y="528"/>
      <point x="243" y="528" type="curve" smooth="yes"/>
      <point x="146" y="528"/>
      <point x="79" y="479"/>
      <point x="46" y="412" type="curve"/>
      <point x="72" y="399" type="line"/>
      <point x="112" y="472"/>
      <point x="182" y="498"/>
      <point x="245" y="498" type="curve" smooth="yes"/>
      <point x="376" y="498"/>
      <point x="454" y="390"/>
      <point x="462" y="280" type="curve"/>
      <point x="183" y="280" type="line"/>
      <point x="183" y="251" type="line"/>
      <point x="463" y="251" type="line"/>
      <point x="458" y="126"/>
      <point x="363" y="20"/>
      <point x="244" y="20" type="curve" smooth="yes"/>
      <point x="177" y="20"/>
      <point x="100" y="53"/>
      <point x="63" y="126" type="curve"/>
      <point x="35" y="114" type="line"/>
      <point x="70" y="35"/>
      <point x="160" y="-9"/>
    </contour>
  </outline>
</glyph>
<glyph name="uni044E" format="1">
  <advance width="742"/>
  <unicode hex="044E"/>
  <outline>
    <contour>
      <point x="115" y="276" type="line"/>
      <point x="115" y="520" type="line"/>
      <point x="82" y="520" type="line"/>
      <point x="82" y="0" type="line"/>
      <point x="115" y="0" type="line"/>
      <point x="115" y="245" type="line"/>
      <point x="225" y="245" type="line"/>
      <point x="230" y="94"/>
      <point x="323" y="-10"/>
      <point x="457" y="-10" type="curve" smooth="yes"/>
      <point x="593" y="-10"/>
      <point x="697" y="94"/>
      <point x="697" y="258" type="curve" smooth="yes"/>
      <point x="697" y="414"/>
      <point x="600" y="528"/>
      <point x="458" y="528" type="curve" smooth="yes"/>
      <point x="330" y="528"/>
      <point x="231" y="429"/>
      <point x="225" y="276" type="curve"/>
    </contour>
    <contour>
      <point x="259" y="259" type="curve" smooth="yes"/>
      <point x="259" y="399"/>
      <point x="338" y="496"/>
      <point x="458" y="496" type="curve" smooth="yes"/>
      <point x="575" y="496"/>
      <point x="663" y="404"/>
      <point x="663" y="259" type="curve" smooth="yes"/>
      <point x="663" y="120"/>
      <point x="582" y="22"/>
      <point x="458" y="22" type="curve" smooth="yes"/>
      <point x="341" y="22"/>
      <point x="259" y="113"/>
    </contour>
  </outline>
</glyph>
<glyph name="uni044F" format="1">
  <advance width="489"/>
  <unicode hex="044F"/>
  <outline>
    <contour>
      <point x="36" y="0" type="line"/>
      <point x="76" y="0" type="line"/>
      <point x="235" y="212" type="line"/>
      <point x="374" y="212" type="line"/>
      <point x="374" y="0" type="line"/>
      <point x="408" y="0" type="line"/>
      <point x="408" y="520" type="line"/>
      <point x="238" y="520" type="line" smooth="yes"/>
      <point x="138" y="520"/>
      <point x="74" y="452"/>
      <point x="74" y="368" type="curve" smooth="yes"/>
      <point x="74" y="278"/>
      <point x="127" y="225"/>
      <point x="198" y="215" type="curve"/>
    </contour>
    <contour>
      <point x="224" y="243" type="line" smooth="yes"/>
      <point x="148" y="243"/>
      <point x="108" y="299"/>
      <point x="108" y="368" type="curve" smooth="yes"/>
      <point x="108" y="438"/>
      <point x="162" y="489"/>
      <point x="239" y="489" type="curve" smooth="yes"/>
      <point x="374" y="489" type="line"/>
      <point x="374" y="243" type="line"/>
    </contour>
  </outline>
</glyph>
<glyph name="uni0452" format="1">
  <advance width="571"/>
  <unicode hex="0452"/>
  <outline>
    <contour>
      <point x="495" y="263" type="line"/>
      <point x="495" y="416"/>
      <point x="444" y="497"/>
      <point x="322" y="497" type="curve" smooth="yes"/>
      <point x="228" y="497"/>
      <point x="150" y="433"/>
      <point x="116" y="333" type="curve"/>
      <point x="116" y="600" type="line"/>
      <point x="358" y="600" type="line"/>
      <point x="358" y="629" type="line"/>
      <point x="116" y="629" type="line"/>
      <point x="116" y="730" type="line"/>
      <point x="82" y="730" type="line"/>
      <point x="82" y="629" type="line"/>
      <point x="8" y="629" type="line"/>
      <point x="8" y="600" type="line"/>
      <point x="82" y="600" type="line"/>
      <point x="82" y="0" type="line"/>
      <point x="116" y="0" type="line"/>
      <point x="116" y="266" type="line"/>
      <point x="141" y="379"/>
      <point x="218" y="465"/>
      <point x="316" y="465" type="curve" smooth="yes"/>
      <point x="420" y="465"/>
      <point x="461" y="395"/>
      <point x="461" y="259" type="curve" smooth="yes"/>
      <point x="461" y="-33" type="line" smooth="yes"/>
      <point x="461" y="-94"/>
      <point x="406" y="-141"/>
      <point x="352" y="-141" type="curve" smooth="yes"/>
      <point x="325" y="-141"/>
      <point x="295" y="-136"/>
      <point x="273" y="-116" type="curve"/>
      <point x="252" y="-138" type="line"/>
      <point x="279" y="-164"/>
      <point x="315" y="-173"/>
      <point x="355" y="-173" type="curve" smooth="yes"/>
      <point x="424" y="-173"/>
      <point x="495" y="-114"/>
      <point x="495" y="-32" type="curve" smooth="yes"/>
    </contour>
  </outline>
</glyph>
<glyph name="uni0454" format="1">
  <advance width="540"/>
  <unicode hex="0454"/>
  <outline>
    <contour>
      <point x="294" y="-9" type="curve" smooth="yes"/>
      <point x="380" y="-9"/>
      <point x="470" y="35"/>
      <point x="506" y="114" type="curve"/>
      <point x="478" y="126" type="line"/>
      <point x="440" y="53"/>
      <point x="363" y="20"/>
      <point x="296" y="20" type="curve" smooth="yes"/>
      <point x="176" y="20"/>
      <point x="82" y="125"/>
      <point x="77" y="251" type="curve"/>
      <point x="357" y="251" type="line"/>
      <point x="357" y="280" type="line"/>
      <point x="78" y="280" type="line"/>
      <point x="86" y="390"/>
      <point x="163" y="498"/>
      <point x="295" y="498" type="curve" smooth="yes"/>
      <point x="358" y="498"/>
      <point x="428" y="472"/>
      <point x="468" y="399" type="curve"/>
      <point x="494" y="412" type="line"/>
      <point x="461" y="479"/>
      <point x="394" y="528"/>
      <point x="297" y="528" type="curve" smooth="yes"/>
      <point x="137" y="528"/>
      <point x="44" y="392"/>
      <point x="44" y="263" type="curve" smooth="yes"/>
      <point x="44" y="128"/>
      <point x="145" y="-9"/>
    </contour>
  </outline>
</glyph>
<glyph name="uni0455" format="1">
  <advance width="475"/>
  <unicode hex="0455"/>
  <outline>
    <contour>
      <point x="238" y="-10" type="curve" smooth="yes"/>
      <point x="356" y="-10"/>
      <point x="434" y="49"/>
      <point x="434" y="141" type="curve" smooth="yes"/>
      <point x="434" y="231"/>
      <point x="360" y="252"/>
      <point x="233" y="282" type="curve" smooth="yes"/>
      <point x="133" y="305"/>
      <point x="91" y="318"/>
      <point x="91" y="383" type="curve" smooth="yes"/>
      <point x="91" y="464"/>
      <point x="159" y="499"/>
      <point x="241" y="499" type="curve" smooth="yes"/>
      <point x="305" y="499"/>
      <point x="367" y="477"/>
      <point x="396" y="437" type="curve"/>
      <point x="419" y="454" type="line"/>
      <point x="391" y="497"/>
      <point x="327" y="528"/>
      <point x="244" y="528" type="curve" smooth="yes"/>
      <point x="144" y="528"/>
      <point x="58" y="481"/>
      <point x="58" y="378" type="curve" smooth="yes"/>
      <point x="58" y="295"/>
      <point x="112" y="279"/>
      <point x="226" y="252" type="curve" smooth="yes"/>
      <point x="339" y="225"/>
      <point x="400" y="207"/>
      <point x="400" y="137" type="curve" smooth="yes"/>
      <point x="400" y="63"/>
      <point x="334" y="19"/>
      <point x="237" y="19" type="curve" smooth="yes"/>
      <point x="165" y="19"/>
      <point x="108" y="44"/>
      <point x="53" y="95" type="curve"/>
      <point x="34" y="72" type="line"/>
      <point x="87" y="17"/>
      <point x="158" y="-10"/>
    </contour>
  </outline>
</glyph>
<glyph name="uni0456" format="1">
  <advance width="197"/>
  <unicode hex="0456"/>
  <outline>
    <contour>
      <point x="115" y="0" type="line"/>
      <point x="115" y="520" type="line"/>
      <point x="81" y="520" type="line"/>
      <point x="81" y="0" type="line"/>
    </contour>
    <contour>
      <point x="115" y="646" type="line"/>
      <point x="115" y="730" type="line"/>
      <point x="81" y="730" type="line"/>
      <point x="81" y="646" type="line"/>
    </contour>
  </outline>
</glyph>
<glyph name="uni045B" format="1">
  <advance width="571"/>
  <unicode hex="045B"/>
  <outline>
    <contour>
      <point x="461" y="0" type="line"/>
      <point x="495" y="0" type="line"/>
      <point x="495" y="263" type="line" smooth="yes"/>
      <point x="495" y="417"/>
      <point x="444" y="497"/>
      <point x="322" y="497" type="curve" smooth="yes"/>
      <point x="227" y="497"/>
      <point x="150" y="433"/>
      <point x="116" y="334" type="curve"/>
      <point x="116" y="600" type="line"/>
      <point x="358" y="600" type="line"/>
      <point x="358" y="629" type="line"/>
      <point x="116" y="629" type="line"/>
      <point x="116" y="730" type="line"/>
      <point x="82" y="730" type="line"/>
      <point x="82" y="629" type="line"/>
      <point x="8" y="629" type="line"/>
      <point x="8" y="600" type="line"/>
      <point x="82" y="600" type="line"/>
      <point x="82" y="0" type="line"/>
      <point x="116" y="0" type="line"/>
      <point x="116" y="267" type="line"/>
      <point x="141" y="381"/>
      <point x="218" y="465"/>
      <point x="316" y="465" type="curve" smooth="yes"/>
      <point x="420" y="465"/>
      <point x="461" y="395"/>
      <point x="461" y="259" type="curve" smooth="yes"/>
    </contour>
  </outline>
</glyph>
<glyph name="uni045E" format="1">
  <advance width="538"/>
  <unicode hex="045E"/>
  <outline>
    <contour>
      <point x="121" y="-222" type="line"/>
      <point x="172" y="-222"/>
      <point x="198" y="-219"/>
      <point x="216" y="-176" type="curve" smooth="yes"/>
      <point x="514" y="520" type="line"/>
      <point x="480" y="520" type="line"/>
      <point x="274" y="36" type="line"/>
      <point x="55" y="520" type="line"/>
      <point x="19" y="520" type="line"/>
      <point x="256" y="0" type="line"/>
      <point x="192" y="-155"/>
      <point x="177" y="-180"/>
      <point x="168" y="-184" type="curve"/>
      <point x="161" y="-189"/>
      <point x="144" y="-190"/>
      <point x="121" y="-190" type="curve"/>
    </contour>
    <contour>
      <point x="368" y="692" type="line"/>
      <point x="361" y="661"/>
      <point x="341" y="642"/>
      <point x="275" y="642" type="curve" smooth="yes"/>
      <point x="209" y="642"/>
      <point x="183" y="663"/>
      <point x="183" y="692" type="curve"/>
      <point x="158" y="692" type="line"/>
      <point x="159" y="651"/>
      <point x="195" y="621"/>
      <point x="275" y="621" type="curve" smooth="yes"/>
      <point x="355" y="621"/>
      <point x="391" y="651"/>
      <point x="392" y="692" type="curve"/>
    </contour>
  </outline>
</glyph>
<glyph name="rdotbelow" format="1">
  <advance width="331"/>
  <unicode hex="1E5B"/>
  <outline>
    <contour>
      <point x="314" y="520" type="line"/>
      <point x="307" y="520"/>
      <point x="295" y="520"/>
      <point x="282" y="519" type="curve" smooth="yes"/>
      <point x="215" y="511"/>
      <point x="150" y="461"/>
      <point x="114" y="388" type="curve"/>
      <point x="114" y="520" type="line"/>
      <point x="81" y="520" type="line"/>
      <point x="81" y="0" type="line"/>
      <point x="115" y="0" type="line"/>
      <point x="115" y="327" type="line"/>
      <point x="143" y="424"/>
      <point x="218" y="484"/>
      <point x="314" y="488" type="curve"/>
    </contour>
    <contour>
      <point x="114" y="-138" type="line"/>
      <point x="114" y="-55" type="line"/>
      <point x="82" y="-55" type="line"/>
      <point x="82" y="-138" type="line"/>
    </contour>
  </outline>
</glyph>
<glyph name="tdotbelow" format="1">
  <advance width="307"/>
  <unicode hex="1E6D"/>
  <outline>
    <contour>
      <point x="205" y="-138" type="line"/>
      <point x="205" y="-55" type="line"/>
      <point x="173" y="-55" type="line"/>
      <point x="173" y="-138" type="line"/>
    </contour>
    <contour>
      <point x="284" y="52" type="line"/>
      <point x="281" y="49"/>
      <point x="245" y="27"/>
      <point x="202" y="27" type="curve" smooth="yes"/>
      <point x="168" y="27"/>
      <point x="137" y="47"/>
      <point x="134" y="86" type="curve"/>
      <point x="134" y="490" type="line"/>
      <point x="257" y="490" type="line"/>
      <point x="257" y="520" type="line"/>
      <point x="134" y="520" type="line"/>
      <point x="134" y="699" type="line"/>
      <point x="100" y="699" type="line"/>
      <point x="100" y="520" type="line"/>
      <point x="26" y="520" type="line"/>
      <point x="26" y="490" type="line"/>
      <point x="100" y="490" type="line"/>
      <point x="100" y="81" type="line" smooth="yes"/>
      <point x="100" y="27"/>
      <point x="144" y="-5"/>
      <point x="196" y="-5" type="curve" smooth="yes"/>
      <point x="251" y="-5"/>
      <point x="292" y="22"/>
      <point x="297" y="24" type="curve"/>
    </contour>
  </outline>
</glyph>
<glyph name="zdotbelow" format="1">
  <advance width="489"/>
  <unicode hex="1E93"/>
  <outline>
    <contour>
      <point x="32" y="0" type="line"/>
      <point x="452" y="0" type="line"/>
      <point x="452" y="29" type="line"/>
      <point x="73" y="29" type="line"/>
      <point x="455" y="492" type="line"/>
      <point x="455" y="520" type="line"/>
      <point x="38" y="520" type="line"/>
      <point x="38" y="491" type="line"/>
      <point x="416" y="491" type="line"/>
      <point x="32" y="28" type="line"/>
    </contour>
    <contour>
      <point x="262" y="-138" type="line"/>
      <point x="262" y="-55" type="line"/>
      <point x="230" y="-55" type="line"/>
      <point x="230" y="-138" type="line"/>
    </contour>
  </outline>
</glyph>
<glyph name="fraction" format="1">
  <advance width="130"/>
  <unicode hex="2044"/>
  <outline>
    <contour>
      <point x="-203" y="-2" type="line"/>
      <point x="73" y="346" type="line"/>
      <point x="354" y="695" type="line"/>
      <point x="332" y="712" type="line"/>
      <point x="55" y="363" type="line"/>
      <point x="-224" y="16" type="line"/>
    </contour>
  </outline>
</glyph>
<glyph name="twoinferior" format="1">
  <advance width="375"/>
  <unicode hex="2082"/>
  <outline>
    <contour>
      <point x="332" y="-80" type="line"/>
      <point x="332" y="-54" type="line"/>
      <point x="77" y="-54" type="line"/>
      <point x="77" y="-15"/>
      <point x="85" y="47"/>
      <point x="185" y="76" type="curve" smooth="yes"/>
      <point x="241" y="92"/>
      <point x="331" y="120"/>
      <point x="331" y="201" type="curve" smooth="yes"/>
      <point x="331" y="261"/>
      <point x="287" y="313"/>
      <point x="195" y="313" type="curve" smooth="yes"/>
      <point x="98" y="313"/>
      <point x="49" y="253"/>
      <point x="44" y="246" type="curve"/>
      <point x="63" y="228" type="line"/>
      <point x="81" y="250"/>
      <point x="121" y="287"/>
      <point x="192" y="287" type="curve" smooth="yes"/>
      <point x="266" y="287"/>
      <point x="302" y="246"/>
      <point x="302" y="202" type="curve" smooth="yes"/>
      <point x="302" y="135"/>
      <point x="223" y="118"/>
      <point x="163" y="96" type="curve" smooth="yes"/>
      <point x="84" y="67"/>
      <point x="39" y="20"/>
      <point x="39" y="-80" type="curve"/>
    </contour>
  </outline>
</glyph>
<glyph name="sixinferior" format="1">
  <advance width="393"/>
  <unicode hex="2086"/>
  <outline>
    <contour>
      <point x="358" y="48" type="curve" smooth="yes"/>
      <point x="358" y="121"/>
      <point x="291" y="179"/>
      <point x="205" y="179" type="curve" smooth="yes"/>
      <point x="145" y="179"/>
      <point x="89" y="148"/>
      <point x="70" y="101" type="curve"/>
      <point x="71" y="219"/>
      <point x="124" y="286"/>
      <point x="205" y="286" type="curve" smooth="yes"/>
      <point x="256" y="286"/>
      <point x="300" y="259"/>
      <point x="317" y="221" type="curve"/>
      <point x="336" y="236" type="line"/>
      <point x="315" y="283"/>
      <point x="264" y="311"/>
      <point x="205" y="311" type="curve" smooth="yes"/>
      <point x="109" y="311"/>
      <point x="43" y="235"/>
      <point x="43" y="73" type="curve" smooth="yes"/>
      <point x="43" y="-25"/>
      <point x="110" y="-85"/>
      <point x="202" y="-85" type="curve" smooth="yes"/>
      <point x="289" y="-85"/>
      <point x="358" y="-26"/>
    </contour>
    <contour>
      <point x="203" y="-60" type="curve" smooth="yes"/>
      <point x="132" y="-60"/>
      <point x="73" y="-11"/>
      <point x="73" y="48" type="curve" smooth="yes"/>
      <point x="73" y="106"/>
      <point x="131" y="156"/>
      <point x="202" y="156" type="curve" smooth="yes"/>
      <point x="273" y="156"/>
      <point x="332" y="106"/>
      <point x="332" y="47" type="curve" smooth="yes"/>
      <point x="332" y="-11"/>
      <point x="274" y="-60"/>
    </contour>
  </outline>
</glyph>
<glyph name="colonmonetary" format="1">
  <advance width="541"/>
  <unicode hex="20A1"/>
  <outline>
    <contour>
      <point x="231" y="-120" type="line"/>
      <point x="256" y="-120" type="line"/>
      <point x="256" y="-6" type="line"/>
      <point x="269" y="-9"/>
      <point x="283" y="-10"/>
      <point x="297" y="-10" type="curve" smooth="yes"/>
      <point x="306" y="-10"/>
      <point x="315" y="-9"/>
      <point x="324" y="-8" type="curve"/>
      <point x="324" y="-120" type="line"/>
      <point x="349" y="-120" type="line"/>
      <point x="349" y="-4" type="line"/>
      <point x="421" y="11"/>
      <point x="482" y="56"/>
      <point x="502" y="115" type="curve"/>
      <point x="469" y="125" type="line"/>
      <point x="453" y="70"/>
      <point x="371" y="22"/>
      <point x="294" y="22" type="curve" smooth="yes"/>
      <point x="176" y="22"/>
      <point x="77" y="131"/>
      <point x="77" y="262" type="curve" smooth="yes"/>
      <point x="77" y="394"/>
      <point x="172" y="496"/>
      <point x="293" y="496" type="curve" smooth="yes"/>
      <point x="365" y="496"/>
      <point x="430" y="459"/>
      <point x="462" y="398" type="curve"/>
      <point x="496" y="410" type="line"/>
      <point x="467" y="468"/>
      <point x="414" y="508"/>
      <point x="349" y="522" type="curve"/>
      <point x="349" y="645" type="line"/>
      <point x="324" y="645" type="line"/>
      <point x="324" y="526" type="line"/>
      <point x="315" y="527"/>
      <point x="305" y="528"/>
      <point x="296" y="528" type="curve" smooth="yes"/>
      <point x="282" y="528"/>
      <point x="269" y="527"/>
      <point x="256" y="525" type="curve"/>
      <point x="256" y="645" type="line"/>
      <point x="231" y="645" type="line"/>
      <point x="231" y="519" type="line"/>
      <point x="120" y="490"/>
      <point x="43" y="387"/>
      <point x="43" y="262" type="curve" smooth="yes"/>
      <point x="43" y="137"/>
      <point x="122" y="30"/>
      <point x="231" y="0" type="curve"/>
    </contour>
  </outline>
</glyph>
<glyph name="uni20A9" format="1">
  <advance width="1087"/>
  <unicode hex="20A9"/>
  <outline>
    <contour>
      <point x="45" y="340" type="line"/>
      <point x="199" y="340" type="line"/>
      <point x="346" y="0" type="line"/>
      <point x="380" y="0" type="line"/>
      <point x="543" y="378" type="line"/>
      <point x="706" y="0" type="line"/>
      <point x="740" y="0" type="line"/>
      <point x="887" y="340" type="line"/>
      <point x="1041" y="340" type="line"/>
      <point x="1041" y="367" type="line"/>
      <point x="898" y="367" type="line"/>
      <point x="928" y="436" type="line"/>
      <point x="1041" y="436" type="line"/>
      <point x="1041" y="463" type="line"/>
      <point x="940" y="463" type="line"/>
      <point x="1047" y="710" type="line"/>
      <point x="1009" y="710" type="line"/>
      <point x="903" y="463" type="line"/>
      <point x="585" y="463" type="line"/>
      <point x="689" y="704" type="line"/>
      <point x="654" y="704" type="line"/>
      <point x="542" y="442" type="line"/>
      <point x="432" y="704" type="line"/>
      <point x="397" y="704" type="line"/>
      <point x="500" y="463" type="line"/>
      <point x="183" y="463" type="line"/>
      <point x="77" y="710" type="line"/>
      <point x="40" y="710" type="line"/>
      <point x="146" y="463" type="line"/>
      <point x="45" y="463" type="line"/>
      <point x="45" y="436" type="line"/>
      <point x="158" y="436" type="line"/>
      <point x="188" y="367" type="line"/>
      <point x="45" y="367" type="line"/>
    </contour>
    <contour>
      <point x="593" y="340" type="line"/>
      <point x="851" y="340" type="line"/>
      <point x="723" y="41" type="line"/>
    </contour>
    <contour>
      <point x="235" y="340" type="line"/>
      <point x="492" y="340" type="line"/>
      <point x="364" y="41" type="line"/>
    </contour>
    <contour>
      <point x="574" y="436" type="line"/>
      <point x="892" y="436" type="line"/>
      <point x="862" y="367" type="line"/>
      <point x="582" y="367" type="line"/>
      <point x="563" y="411" type="line"/>
    </contour>
    <contour>
      <point x="523" y="411" type="line"/>
      <point x="504" y="367" type="line"/>
      <point x="224" y="367" type="line"/>
      <point x="194" y="436" type="line"/>
      <point x="512" y="436" type="line"/>
    </contour>
  </outline>
</glyph>
<glyph name="Euro" format="1">
  <advance width="812"/>
  <unicode hex="20AC"/>
  <outline>
    <contour>
      <point x="82" y="405" type="line"/>
      <point x="70" y="379" type="line"/>
      <point x="145" y="379" type="line"/>
      <point x="145" y="360" type="line" smooth="yes"/>
      <point x="145" y="343"/>
      <point x="146" y="327"/>
      <point x="148" y="311" type="curve"/>
      <point x="45" y="311" type="line"/>
      <point x="33" y="284" type="line"/>
      <point x="153" y="284" type="line"/>
      <point x="185" y="131"/>
      <point x="309" y="-6"/>
      <point x="476" y="-6" type="curve" smooth="yes"/>
      <point x="584" y="-6"/>
      <point x="709" y="52"/>
      <point x="757" y="159" type="curve"/>
      <point x="726" y="171" type="line"/>
      <point x="674" y="71"/>
      <point x="570" y="27"/>
      <point x="480" y="27" type="curve" smooth="yes"/>
      <point x="336" y="27"/>
      <point x="218" y="141"/>
      <point x="188" y="284" type="curve"/>
      <point x="510" y="284" type="line"/>
      <point x="522" y="311" type="line"/>
      <point x="183" y="311" type="line"/>
      <point x="181" y="326"/>
      <point x="180" y="341"/>
      <point x="180" y="357" type="curve" smooth="yes"/>
      <point x="180" y="364"/>
      <point x="180" y="371"/>
      <point x="181" y="379" type="curve"/>
      <point x="549" y="379" type="line"/>
      <point x="561" y="405" type="line"/>
      <point x="183" y="405" type="line"/>
      <point x="202" y="547"/>
      <point x="306" y="681"/>
      <point x="477" y="681" type="curve" smooth="yes"/>
      <point x="564" y="681"/>
      <point x="659" y="646"/>
      <point x="711" y="545" type="curve"/>
      <point x="741" y="559" type="line"/>
      <point x="698" y="649"/>
      <point x="607" y="714"/>
      <point x="481" y="714" type="curve" smooth="yes"/>
      <point x="287" y="714"/>
      <point x="167" y="561"/>
      <point x="148" y="405" type="curve"/>
    </contour>
  </outline>
</glyph>
<glyph name="uni20B9" format="1">
  <advance width="429"/>
  <unicode hex="20B9"/>
  <outline>
    <contour>
      <point x="390" y="614" type="line"/>
      <point x="284" y="614" type="line"/>
      <point x="266" y="641"/>
      <point x="243" y="666"/>
      <point x="215" y="683" type="curve"/>
      <point x="390" y="683" type="line"/>
      <point x="390" y="710" type="line"/>
      <point x="45" y="710" type="line"/>
      <point x="45" y="678" type="line"/>
      <point x="117" y="678" type="line" smooth="yes"/>
      <point x="167" y="678"/>
      <point x="212" y="652"/>
      <point x="243" y="614" type="curve"/>
      <point x="45" y="614" type="line"/>
      <point x="45" y="587" type="line"/>
      <point x="261" y="587" type="line"/>
      <point x="277" y="559"/>
      <point x="286" y="526"/>
      <point x="286" y="493" type="curve" smooth="yes"/>
      <point x="286" y="399"/>
      <point x="224" y="306"/>
      <point x="124" y="306" type="curve" smooth="yes"/>
      <point x="88" y="306" type="line"/>
      <point x="285" y="0" type="line"/>
      <point x="325" y="0" type="line"/>
      <point x="146" y="278" type="line"/>
      <point x="250" y="289"/>
      <point x="321" y="385"/>
      <point x="321" y="493" type="curve" smooth="yes"/>
      <point x="321" y="525"/>
      <point x="313" y="557"/>
      <point x="299" y="587" type="curve"/>
      <point x="390" y="587" type="line"/>
    </contour>
  </outline>
</glyph>
<glyph name="uni2113" format="1">
  <advance width="276"/>
  <unicode hex="2113"/>
  <outline>
    <contour>
      <point x="178" y="25" type="curve" smooth="yes"/>
      <point x="137" y="25"/>
      <point x="111" y="49"/>
      <point x="111" y="88" type="curve" smooth="yes"/>
      <point x="111" y="291" type="line"/>
      <point x="186" y="369"/>
      <point x="254" y="507"/>
      <point x="254" y="610" type="curve" smooth="yes"/>
      <point x="254" y="687"/>
      <point x="219" y="740"/>
      <point x="168" y="740" type="curve" smooth="yes"/>
      <point x="117" y="740"/>
      <point x="79" y="684"/>
      <point x="79" y="610" type="curve" smooth="yes"/>
      <point x="79" y="90" type="line" smooth="yes"/>
      <point x="79" y="27"/>
      <point x="111" y="-5"/>
      <point x="166" y="-5" type="curve" smooth="yes"/>
      <point x="192" y="-5"/>
      <point x="221" y="2"/>
      <point x="245" y="12" type="curve"/>
      <point x="236" y="40" type="line"/>
      <point x="217" y="32"/>
      <point x="195" y="25"/>
    </contour>
    <contour>
      <point x="223" y="604" type="curve" smooth="yes"/>
      <point x="223" y="529"/>
      <point x="170" y="403"/>
      <point x="111" y="331" type="curve"/>
      <point x="111" y="610" type="line" smooth="yes"/>
      <point x="111" y="669"/>
      <point x="135" y="710"/>
      <point x="169" y="710" type="curve" smooth="yes"/>
      <point x="204" y="710"/>
      <point x="223" y="672"/>
    </contour>
  </outline>
</glyph>
<glyph name="estimated" format="1">
  <advance width="609"/>
  <unicode hex="212E"/>
  <outline>
    <contour>
      <point x="309" y="13" type="curve" smooth="yes"/>
      <point x="234" y="13"/>
      <point x="168" y="49"/>
      <point x="125" y="105" type="curve"/>
      <point x="125" y="255" type="line"/>
      <point x="573" y="255" type="line"/>
      <point x="573" y="407"/>
      <point x="465" y="531"/>
      <point x="309" y="531" type="curve" smooth="yes"/>
      <point x="154" y="531"/>
      <point x="46" y="406"/>
      <point x="46" y="260" type="curve" smooth="yes"/>
      <point x="46" y="115"/>
      <point x="152" y="-10"/>
      <point x="309" y="-10" type="curve" smooth="yes"/>
      <point x="409" y="-10"/>
      <point x="477" y="26"/>
      <point x="524" y="73" type="curve"/>
      <point x="508" y="91" type="line"/>
      <point x="470" y="47"/>
      <point x="401" y="13"/>
    </contour>
    <contour>
      <point x="309" y="508" type="curve" smooth="yes"/>
      <point x="382" y="508"/>
      <point x="451" y="471"/>
      <point x="495" y="413" type="curve"/>
      <point x="495" y="279" type="line"/>
      <point x="125" y="279" type="line"/>
      <point x="125" y="414" type="line"/>
      <point x="168" y="471"/>
      <point x="234" y="508"/>
    </contour>
  </outline>
</glyph>
<glyph name="onethird" format="1">
  <advance width="809"/>
  <unicode hex="2153"/>
  <outline>
    <contour>
      <point x="105" y="-2" type="line"/>
      <point x="381" y="346" type="line"/>
      <point x="662" y="695" type="line"/>
      <point x="640" y="712" type="line"/>
      <point x="363" y="363" type="line"/>
      <point x="84" y="16" type="line"/>
    </contour>
    <contour>
      <point x="173" y="364" type="line"/>
      <point x="173" y="731" type="line"/>
      <point x="145" y="731" type="line"/>
      <point x="144" y="728"/>
      <point x="92" y="677"/>
      <point x="49" y="677" type="curve"/>
      <point x="49" y="650" type="line"/>
      <point x="82" y="650"/>
      <point x="131" y="681"/>
      <point x="145" y="698" type="curve"/>
      <point x="145" y="364" type="line"/>
      <point x="63" y="364" type="line"/>
      <point x="63" y="337" type="line"/>
      <point x="250" y="337" type="line"/>
      <point x="250" y="364" type="line"/>
    </contour>
    <contour>
      <point x="622" y="-5" type="curve" smooth="yes"/>
      <point x="705" y="-5"/>
      <point x="773" y="37"/>
      <point x="773" y="99" type="curve" smooth="yes"/>
      <point x="773" y="149"/>
      <point x="733" y="188"/>
      <point x="672" y="198" type="curve"/>
      <point x="731" y="211"/>
      <point x="761" y="240"/>
      <point x="761" y="286" type="curve" smooth="yes"/>
      <point x="761" y="346"/>
      <point x="699" y="393"/>
      <point x="615" y="393" type="curve" smooth="yes"/>
      <point x="553" y="393"/>
      <point x="499" y="367"/>
      <point x="477" y="328" type="curve"/>
      <point x="497" y="309" type="line"/>
      <point x="515" y="344"/>
      <point x="559" y="368"/>
      <point x="615" y="368" type="curve" smooth="yes"/>
      <point x="681" y="368"/>
      <point x="733" y="334"/>
      <point x="733" y="284" type="curve" smooth="yes"/>
      <point x="733" y="236"/>
      <point x="683" y="210"/>
      <point x="597" y="210" type="curve" smooth="yes"/>
      <point x="575" y="210" type="line"/>
      <point x="575" y="186" type="line"/>
      <point x="597" y="186" type="line" smooth="yes"/>
      <point x="686" y="186"/>
      <point x="746" y="153"/>
      <point x="746" y="102" type="curve" smooth="yes"/>
      <point x="746" y="55"/>
      <point x="692" y="21"/>
      <point x="622" y="21" type="curve" smooth="yes"/>
      <point x="549" y="21"/>
      <point x="494" y="61"/>
      <point x="490" y="102" type="curve"/>
      <point x="471" y="89" type="line"/>
      <point x="477" y="33"/>
      <point x="539" y="-5"/>
    </contour>
  </outline>
</glyph>
<glyph name="twothirds" format="1">
  <advance width="824"/>
  <unicode hex="2154"/>
  <outline>
    <contour>
      <point x="337" y="338" type="line"/>
      <point x="337" y="364" type="line"/>
      <point x="84" y="364" type="line"/>
      <point x="84" y="403"/>
      <point x="93" y="465"/>
      <point x="194" y="496" type="curve" smooth="yes"/>
      <point x="248" y="513"/>
      <point x="337" y="539"/>
      <point x="337" y="619" type="curve" smooth="yes"/>
      <point x="337" y="679"/>
      <point x="293" y="731"/>
      <point x="202" y="731" type="curve" smooth="yes"/>
      <point x="105" y="731"/>
      <point x="57" y="671"/>
      <point x="52" y="664" type="curve"/>
      <point x="71" y="646" type="line"/>
      <point x="88" y="668"/>
      <point x="128" y="705"/>
      <point x="199" y="705" type="curve" smooth="yes"/>
      <point x="272" y="705"/>
      <point x="308" y="665"/>
      <point x="308" y="620" type="curve" smooth="yes"/>
      <point x="308" y="553"/>
      <point x="229" y="537"/>
      <point x="170" y="514" type="curve" smooth="yes"/>
      <point x="91" y="485"/>
      <point x="47" y="439"/>
      <point x="47" y="338" type="curve"/>
    </contour>
    <contour>
      <point x="158" y="-2" type="line"/>
      <point x="434" y="346" type="line"/>
      <point x="715" y="695" type="line"/>
      <point x="693" y="712" type="line"/>
      <point x="416" y="363" type="line"/>
      <point x="137" y="16" type="line"/>
    </contour>
    <contour>
      <point x="634" y="-5" type="curve" smooth="yes"/>
      <point x="717" y="-5"/>
      <point x="785" y="37"/>
      <point x="785" y="99" type="curve" smooth="yes"/>
      <point x="785" y="149"/>
      <point x="745" y="188"/>
      <point x="684" y="198" type="curve"/>
      <point x="743" y="211"/>
      <point x="773" y="240"/>
      <point x="773" y="286" type="curve" smooth="yes"/>
      <point x="773" y="346"/>
      <point x="711" y="393"/>
      <point x="627" y="393" type="curve" smooth="yes"/>
      <point x="565" y="393"/>
      <point x="511" y="367"/>
      <point x="489" y="328" type="curve"/>
      <point x="509" y="309" type="line"/>
      <point x="527" y="344"/>
      <point x="571" y="368"/>
      <point x="627" y="368" type="curve" smooth="yes"/>
      <point x="693" y="368"/>
      <point x="745" y="334"/>
      <point x="745" y="284" type="curve" smooth="yes"/>
      <point x="745" y="236"/>
      <point x="695" y="210"/>
      <point x="609" y="210" type="curve" smooth="yes"/>
      <point x="587" y="210" type="line"/>
      <point x="587" y="186" type="line"/>
      <point x="609" y="186" type="line" smooth="yes"/>
      <point x="698" y="186"/>
      <point x="758" y="153"/>
      <point x="758" y="102" type="curve" smooth="yes"/>
      <point x="758" y="55"/>
      <point x="704" y="21"/>
      <point x="634" y="21" type="curve" smooth="yes"/>
      <point x="561" y="21"/>
      <point x="506" y="61"/>
      <point x="502" y="102" type="curve"/>
      <point x="483" y="89" type="line"/>
      <point x="489" y="33"/>
      <point x="551" y="-5"/>
    </contour>
  </outline>
</glyph>
<glyph name="threeeighths" format="1">
  <advance width="813"/>
  <unicode hex="215C"/>
  <outline>
    <contour>
      <point x="196" y="333" type="curve" smooth="yes"/>
      <point x="279" y="333"/>
      <point x="347" y="375"/>
      <point x="347" y="437" type="curve" smooth="yes"/>
      <point x="347" y="487"/>
      <point x="307" y="527"/>
      <point x="246" y="537" type="curve"/>
      <point x="305" y="549"/>
      <point x="335" y="579"/>
      <point x="335" y="624" type="curve" smooth="yes"/>
      <point x="335" y="685"/>
      <point x="273" y="731"/>
      <point x="189" y="731" type="curve" smooth="yes"/>
      <point x="127" y="731"/>
      <point x="73" y="706"/>
      <point x="51" y="666" type="curve"/>
      <point x="71" y="647" type="line"/>
      <point x="89" y="682"/>
      <point x="133" y="706"/>
      <point x="189" y="706" type="curve" smooth="yes"/>
      <point x="255" y="706"/>
      <point x="307" y="672"/>
      <point x="307" y="622" type="curve" smooth="yes"/>
      <point x="307" y="574"/>
      <point x="257" y="548"/>
      <point x="171" y="548" type="curve" smooth="yes"/>
      <point x="149" y="548" type="line"/>
      <point x="149" y="524" type="line"/>
      <point x="171" y="524" type="line" smooth="yes"/>
      <point x="260" y="524"/>
      <point x="320" y="492"/>
      <point x="320" y="441" type="curve" smooth="yes"/>
      <point x="320" y="393"/>
      <point x="266" y="360"/>
      <point x="196" y="360" type="curve" smooth="yes"/>
      <point x="123" y="360"/>
      <point x="68" y="399"/>
      <point x="64" y="440" type="curve"/>
      <point x="45" y="427" type="line"/>
      <point x="51" y="372"/>
      <point x="113" y="333"/>
    </contour>
    <contour>
      <point x="139" y="-2" type="line"/>
      <point x="415" y="346" type="line"/>
      <point x="696" y="695" type="line"/>
      <point x="674" y="712" type="line"/>
      <point x="397" y="363" type="line"/>
      <point x="118" y="16" type="line"/>
    </contour>
    <contour>
      <point x="777" y="105" type="curve" smooth="yes"/>
      <point x="777" y="156"/>
      <point x="735" y="193"/>
      <point x="680" y="208" type="curve"/>
      <point x="724" y="222"/>
      <point x="761" y="251"/>
      <point x="761" y="292" type="curve" smooth="yes"/>
      <point x="761" y="353"/>
      <point x="692" y="388"/>
      <point x="625" y="388" type="curve" smooth="yes"/>
      <point x="559" y="388"/>
      <point x="489" y="353"/>
      <point x="489" y="292" type="curve" smooth="yes"/>
      <point x="489" y="251"/>
      <point x="526" y="222"/>
      <point x="569" y="208" type="curve"/>
      <point x="522" y="195"/>
      <point x="473" y="159"/>
      <point x="473" y="107" type="curve" smooth="yes"/>
      <point x="473" y="48"/>
      <point x="533" y="-4"/>
      <point x="623" y="-4" type="curve" smooth="yes"/>
      <point x="706" y="-4"/>
      <point x="777" y="39"/>
    </contour>
    <contour>
      <point x="750" y="108" type="curve" smooth="yes"/>
      <point x="750" y="55"/>
      <point x="686" y="21"/>
      <point x="625" y="21" type="curve" smooth="yes"/>
      <point x="568" y="21"/>
      <point x="500" y="53"/>
      <point x="500" y="107" type="curve" smooth="yes"/>
      <point x="500" y="161"/>
      <point x="564" y="196"/>
      <point x="624" y="196" type="curve" smooth="yes"/>
      <point x="682" y="196"/>
      <point x="750" y="164"/>
    </contour>
    <contour>
      <point x="516" y="290" type="curve" smooth="yes"/>
      <point x="516" y="335"/>
      <point x="568" y="363"/>
      <point x="624" y="363" type="curve" smooth="yes"/>
      <point x="680" y="363"/>
      <point x="734" y="336"/>
      <point x="734" y="291" type="curve" smooth="yes"/>
      <point x="734" y="246"/>
      <point x="675" y="219"/>
      <point x="624" y="219" type="curve" smooth="yes"/>
      <point x="575" y="219"/>
      <point x="516" y="245"/>
    </contour>
  </outline>
</glyph>
<glyph name="partialdiff" format="1">
  <advance width="572"/>
  <unicode hex="2202"/>
  <outline>
    <contour>
      <point x="251" y="-10" type="curve" smooth="yes"/>
      <point x="410" y="-10"/>
      <point x="519" y="130"/>
      <point x="519" y="399" type="curve" smooth="yes"/>
      <point x="519" y="623"/>
      <point x="444" y="715"/>
      <point x="299" y="715" type="curve" smooth="yes"/>
      <point x="223" y="715"/>
      <point x="149" y="690"/>
      <point x="105" y="637" type="curve"/>
      <point x="125" y="616" type="line"/>
      <point x="157" y="655"/>
      <point x="224" y="683"/>
      <point x="297" y="683" type="curve" smooth="yes"/>
      <point x="411" y="683"/>
      <point x="486" y="615"/>
      <point x="486" y="415" type="curve" smooth="yes"/>
      <point x="486" y="373"/>
      <point x="482" y="308"/>
      <point x="475" y="275" type="curve"/>
      <point x="454" y="377"/>
      <point x="374" y="434"/>
      <point x="279" y="434" type="curve" smooth="yes"/>
      <point x="145" y="434"/>
      <point x="32" y="322"/>
      <point x="32" y="195" type="curve" smooth="yes"/>
      <point x="32" y="81"/>
      <point x="123" y="-10"/>
    </contour>
    <contour>
      <point x="249" y="22" type="curve" smooth="yes"/>
      <point x="141" y="22"/>
      <point x="65" y="100"/>
      <point x="65" y="196" type="curve" smooth="yes"/>
      <point x="65" y="308"/>
      <point x="166" y="404"/>
      <point x="278" y="404" type="curve" smooth="yes"/>
      <point x="380" y="404"/>
      <point x="459" y="324"/>
      <point x="459" y="233" type="curve" smooth="yes"/>
      <point x="459" y="144"/>
      <point x="385" y="22"/>
    </contour>
  </outline>
</glyph>
<glyph name="f_f" format="1">
  <advance width="550"/>
  <unicode hex="FB00"/>
  <outline>
    <contour>
      <point x="488" y="708" type="curve" smooth="yes"/>
      <point x="534" y="708"/>
      <point x="551" y="691"/>
      <point x="558" y="684" type="curve"/>
      <point x="575" y="706" type="line"/>
      <point x="571" y="711"/>
      <point x="549" y="740"/>
      <point x="482" y="740" type="curve" smooth="yes"/>
      <point x="420" y="740"/>
      <point x="381" y="714"/>
      <point x="354" y="674" type="curve"/>
      <point x="337" y="686"/>
      <point x="297" y="700"/>
      <point x="252" y="700" type="curve" smooth="yes"/>
      <point x="144" y="700"/>
      <point x="103" y="612"/>
      <point x="102" y="529" type="curve" smooth="yes"/>
      <point x="102" y="520" type="line"/>
      <point x="28" y="520" type="line"/>
      <point x="28" y="490" type="line"/>
      <point x="102" y="490" type="line"/>
      <point x="102" y="0" type="line"/>
      <point x="136" y="0" type="line"/>
      <point x="136" y="490" type="line"/>
      <point x="316" y="490" type="line"/>
      <point x="316" y="0" type="line"/>
      <point x="350" y="0" type="line"/>
      <point x="350" y="490" type="line"/>
      <point x="529" y="490" type="line"/>
      <point x="529" y="520" type="line"/>
      <point x="350" y="520" type="line"/>
      <point x="350" y="539" type="line" smooth="yes"/>
      <point x="350" y="616"/>
      <point x="385" y="708"/>
    </contour>
    <contour>
      <point x="316" y="520" type="curve" smooth="yes"/>
      <point x="136" y="520" type="line"/>
      <point x="136" y="529" type="line" smooth="yes"/>
      <point x="136" y="587"/>
      <point x="161" y="669"/>
      <point x="256" y="669" type="curve" smooth="yes"/>
      <point x="277" y="669"/>
      <point x="317" y="665"/>
      <point x="341" y="646" type="curve"/>
      <point x="323" y="613"/>
      <point x="316" y="571"/>
    </contour>
  </outline>
</glyph>
<glyph name="f_f_i" format="1">
  <advance width="681"/>
  <unicode hex="FB03"/>
  <outline>
    <contour>
      <point x="102" y="0" type="line"/>
      <point x="136" y="0" type="line"/>
      <point x="136" y="490" type="line"/>
      <point x="316" y="490" type="line"/>
      <point x="316" y="0" type="line"/>
      <point x="350" y="0" type="line"/>
      <point x="350" y="490" type="line"/>
      <point x="565" y="490" type="line"/>
      <point x="565" y="0" type="line"/>
      <point x="599" y="0" type="line"/>
      <point x="599" y="520" type="line"/>
      <point x="350" y="520" type="line"/>
      <point x="350" y="539" type="line" smooth="yes"/>
      <point x="350" y="617"/>
      <point x="385" y="708"/>
      <point x="490" y="708" type="curve" smooth="yes"/>
      <point x="533" y="708"/>
      <point x="579" y="693"/>
      <point x="593" y="679" type="curve"/>
      <point x="613" y="702" type="line"/>
      <point x="606" y="709"/>
      <point x="554" y="740"/>
      <point x="486" y="740" type="curve" smooth="yes"/>
      <point x="422" y="740"/>
      <point x="382" y="714"/>
      <point x="354" y="674" type="curve"/>
      <point x="337" y="686"/>
      <point x="297" y="700"/>
      <point x="253" y="700" type="curve" smooth="yes"/>
      <point x="144" y="700"/>
      <point x="102" y="610"/>
      <point x="102" y="528" type="curve" smooth="yes"/>
      <point x="102" y="520" type="line"/>
      <point x="28" y="520" type="line"/>
      <point x="28" y="490" type="line"/>
      <point x="102" y="490" type="line"/>
    </contour>
    <contour>
      <point x="136" y="520" type="line"/>
      <point x="136" y="529" type="line" smooth="yes"/>
      <point x="136" y="586"/>
      <point x="161" y="669"/>
      <point x="256" y="669" type="curve" smooth="yes"/>
      <point x="277" y="669"/>
      <point x="317" y="665"/>
      <point x="341" y="646" type="curve"/>
      <point x="323" y="613"/>
      <point x="316" y="570"/>
      <point x="316" y="520" type="curve"/>
    </contour>
  </outline>
</glyph>
<glyph name="s_t" format="1">
  <advance width="781"/>
  <unicode hex="FB06"/>
  <outline>
    <contour>
      <point x="759" y="52" type="line"/>
      <point x="754" y="49"/>
      <point x="718" y="27"/>
      <point x="679" y="27" type="curve" smooth="yes"/>
      <point x="641" y="27"/>
      <point x="609" y="47"/>
      <point x="609" y="86" type="curve" smooth="yes"/>
      <point x="609" y="490" type="line"/>
      <point x="732" y="490" type="line"/>
      <point x="732" y="520" type="line"/>
      <point x="609" y="520" type="line"/>
      <point x="609" y="675"/>
      <point x="604" y="751"/>
      <point x="475" y="751" type="curve" smooth="yes"/>
      <point x="361" y="751"/>
      <point x="324" y="690"/>
      <point x="324" y="618" type="curve" smooth="yes"/>
      <point x="324" y="566"/>
      <point x="343" y="540"/>
      <point x="361" y="498" type="curve"/>
      <point x="331" y="517"/>
      <point x="288" y="528"/>
      <point x="240" y="528" type="curve" smooth="yes"/>
      <point x="151" y="528"/>
      <point x="51" y="492"/>
      <point x="51" y="380" type="curve" smooth="yes"/>
      <point x="51" y="272"/>
      <point x="146" y="250"/>
      <point x="238" y="244" type="curve" smooth="yes"/>
      <point x="298" y="240"/>
      <point x="410" y="233"/>
      <point x="410" y="136" type="curve" smooth="yes"/>
      <point x="410" y="49"/>
      <point x="320" y="19"/>
      <point x="246" y="19" type="curve" smooth="yes"/>
      <point x="179" y="19"/>
      <point x="117" y="44"/>
      <point x="62" y="93" type="curve"/>
      <point x="43" y="70" type="line"/>
      <point x="89" y="26"/>
      <point x="159" y="-10"/>
      <point x="245" y="-10" type="curve" smooth="yes"/>
      <point x="335" y="-10"/>
      <point x="443" y="28"/>
      <point x="443" y="138" type="curve" smooth="yes"/>
      <point x="443" y="253"/>
      <point x="322" y="266"/>
      <point x="243" y="273" type="curve" smooth="yes"/>
      <point x="184" y="278"/>
      <point x="83" y="287"/>
      <point x="83" y="384" type="curve" smooth="yes"/>
      <point x="83" y="471"/>
      <point x="164" y="499"/>
      <point x="241" y="499" type="curve" smooth="yes"/>
      <point x="291" y="499"/>
      <point x="349" y="487"/>
      <point x="385" y="437" type="curve"/>
      <point x="407" y="454" type="line"/>
      <point x="408" y="457"/>
      <point x="349" y="533"/>
      <point x="349" y="620" type="curve" smooth="yes"/>
      <point x="349" y="680"/>
      <point x="378" y="726"/>
      <point x="473" y="726" type="curve" smooth="yes"/>
      <point x="561" y="726"/>
      <point x="575" y="686"/>
      <point x="575" y="520" type="curve"/>
      <point x="500" y="520" type="line"/>
      <point x="500" y="490" type="line"/>
      <point x="575" y="490" type="line"/>
      <point x="575" y="81" type="line" smooth="yes"/>
      <point x="575" y="27"/>
      <point x="617" y="-5"/>
      <point x="673" y="-5" type="curve" smooth="yes"/>
      <point x="722" y="-5"/>
      <point x="766" y="20"/>
      <point x="772" y="24" type="curve"/>
    </contour>
  </outline>
</glyph>
<glyph name="D.sc" format="1">
  <advance width="615"/>
  <outline>
    <contour>
      <point x="356" y="707" type="move" name="top"/>
    </contour>
    <contour>
      <point x="284" y="0" type="line"/>
      <point x="453" y="0"/>
      <point x="562" y="107"/>
      <point x="562" y="272" type="curve" smooth="yes"/>
      <point x="562" y="422"/>
      <point x="470" y="542"/>
      <point x="284" y="542" type="curve" smooth="yes"/>
      <point x="92" y="542" type="line"/>
      <point x="92" y="0" type="line"/>
    </contour>
    <contour>
      <point x="529" y="272" type="curve" smooth="yes"/>
      <point x="529" y="134"/>
      <point x="445" y="30"/>
      <point x="284" y="30" type="curve" smooth="yes"/>
      <point x="124" y="30" type="line"/>
      <point x="124" y="512" type="line"/>
      <point x="284" y="512" type="line" smooth="yes"/>
      <point x="442" y="512"/>
      <point x="529" y="412"/>
    </contour>
  </outline>
</glyph>
<glyph name="F.sc" format="1">
  <advance width="517"/>
  <outline>
    <contour>
      <point x="124" y="0" type="line"/>
      <point x="124" y="261" type="line"/>
      <point x="420" y="261" type="line"/>
      <point x="420" y="291" type="line"/>
      <point x="124" y="291" type="line"/>
      <point x="124" y="512" type="line"/>
      <point x="472" y="512" type="line"/>
      <point x="472" y="542" type="line"/>
      <point x="92" y="542" type="line"/>
      <point x="92" y="0" type="line"/>
    </contour>
  </outline>
</glyph>
<glyph name="G.sc" format="1">
  <advance width="618"/>
  <outline>
    <contour>
      <point x="372" y="707" type="move" name="top"/>
    </contour>
    <contour>
      <point x="384" y="0" type="move" name="bottom"/>
    </contour>
    <contour>
      <point x="527" y="0" type="line"/>
      <point x="557" y="0" type="line"/>
      <point x="557" y="262" type="line"/>
      <point x="392" y="262" type="line"/>
      <point x="392" y="234" type="line"/>
      <point x="527" y="234" type="line"/>
      <point x="527" y="123" type="line"/>
      <point x="465" y="57"/>
      <point x="399" y="27"/>
      <point x="327" y="27" type="curve" smooth="yes"/>
      <point x="190" y="27"/>
      <point x="82" y="141"/>
      <point x="82" y="271" type="curve" smooth="yes"/>
      <point x="82" y="393"/>
      <point x="173" y="516"/>
      <point x="317" y="516" type="curve" smooth="yes"/>
      <point x="403" y="516"/>
      <point x="473" y="485"/>
      <point x="514" y="412" type="curve"/>
      <point x="542" y="428" type="line"/>
      <point x="505" y="496"/>
      <point x="437" y="545"/>
      <point x="318" y="545" type="curve" smooth="yes"/>
      <point x="161" y="545"/>
      <point x="50" y="414"/>
      <point x="50" y="272" type="curve" smooth="yes"/>
      <point x="50" y="136"/>
      <point x="164" y="-4"/>
      <point x="325" y="-4" type="curve" smooth="yes"/>
      <point x="401" y="-4"/>
      <point x="468" y="25"/>
      <point x="527" y="86" type="curve"/>
    </contour>
  </outline>
</glyph>
<glyph name="P.sc" format="1">
  <advance width="538"/>
  <outline>
    <contour>
      <point x="124" y="0" type="line"/>
      <point x="124" y="207" type="line"/>
      <point x="338" y="207" type="line" smooth="yes"/>
      <point x="435" y="207"/>
      <point x="501" y="289"/>
      <point x="501" y="375" type="curve" smooth="yes"/>
      <point x="501" y="457"/>
      <point x="430" y="542"/>
      <point x="332" y="542" type="curve" smooth="yes"/>
      <point x="92" y="542" type="line"/>
      <point x="92" y="0" type="line"/>
    </contour>
    <contour>
      <point x="124" y="512" type="line"/>
      <point x="331" y="512" type="line" smooth="yes"/>
      <point x="407" y="512"/>
      <point x="468" y="447"/>
      <point x="468" y="375" type="curve" smooth="yes"/>
      <point x="468" y="305"/>
      <point x="419" y="237"/>
      <point x="337" y="237" type="curve" smooth="yes"/>
      <point x="124" y="237" type="line"/>
    </contour>
  </outline>
</glyph>
<glyph name="Q.sc" format="1">
  <advance width="647"/>
  <outline>
    <contour>
      <point x="539" y="0" type="line"/>
      <point x="574" y="0" type="line"/>
      <point x="511" y="72" type="line"/>
      <point x="564" y="123"/>
      <point x="597" y="195"/>
      <point x="597" y="271" type="curve" smooth="yes"/>
      <point x="597" y="406"/>
      <point x="487" y="545"/>
      <point x="324" y="545" type="curve" smooth="yes"/>
      <point x="168" y="545"/>
      <point x="50" y="415"/>
      <point x="50" y="271" type="curve" smooth="yes"/>
      <point x="50" y="132"/>
      <point x="161" y="-4"/>
      <point x="324" y="-4" type="curve" smooth="yes"/>
      <point x="388" y="-4"/>
      <point x="446" y="18"/>
      <point x="491" y="54" type="curve"/>
    </contour>
    <contour>
      <point x="324" y="27" type="curve" smooth="yes"/>
      <point x="183" y="27"/>
      <point x="82" y="144"/>
      <point x="82" y="271" type="curve" smooth="yes"/>
      <point x="82" y="391"/>
      <point x="179" y="516"/>
      <point x="324" y="516" type="curve" smooth="yes"/>
      <point x="462" y="516"/>
      <point x="565" y="398"/>
      <point x="565" y="271" type="curve" smooth="yes"/>
      <point x="565" y="207"/>
      <point x="538" y="142"/>
      <point x="491" y="95" type="curve"/>
      <point x="440" y="154" type="line"/>
      <point x="405" y="154" type="line"/>
      <point x="471" y="78" type="line"/>
      <point x="432" y="47"/>
      <point x="381" y="27"/>
    </contour>
  </outline>
</glyph>
<glyph name="R.sc" format="1">
  <advance width="559"/>
  <outline>
    <contour>
      <point x="319" y="710" type="move" name="top"/>
    </contour>
    <contour>
      <point x="319" y="0" type="move" name="bottom"/>
    </contour>
    <contour>
      <point x="124" y="0" type="line"/>
      <point x="124" y="207" type="line"/>
      <point x="326" y="207" type="line"/>
      <point x="469" y="0" type="line"/>
      <point x="507" y="0" type="line"/>
      <point x="361" y="212" type="line"/>
      <point x="445" y="221"/>
      <point x="503" y="294"/>
      <point x="503" y="375" type="curve" smooth="yes"/>
      <point x="503" y="457"/>
      <point x="432" y="542"/>
      <point x="334" y="542" type="curve" smooth="yes"/>
      <point x="92" y="542" type="line"/>
      <point x="92" y="0" type="line"/>
    </contour>
    <contour>
      <point x="124" y="512" type="line"/>
      <point x="332" y="512" type="line" smooth="yes"/>
      <point x="410" y="512"/>
      <point x="470" y="446"/>
      <point x="470" y="375" type="curve" smooth="yes"/>
      <point x="470" y="305"/>
      <point x="418" y="237"/>
      <point x="338" y="237" type="curve" smooth="yes"/>
      <point x="124" y="237" type="line"/>
    </contour>
  </outline>
</glyph>
<glyph name="U.sc" format="1">
  <advance width="649"/>
  <outline>
    <contour>
      <point x="382" y="707" type="move" name="top"/>
    </contour>
    <contour>
      <point x="382" y="0" type="move" name="bottom"/>
    </contour>
    <contour>
      <point x="324" y="27" type="curve" smooth="yes"/>
      <point x="162" y="27"/>
      <point x="114" y="147"/>
      <point x="114" y="270" type="curve" smooth="yes"/>
      <point x="114" y="542" type="line"/>
      <point x="82" y="542" type="line"/>
      <point x="82" y="270" type="line" smooth="yes"/>
      <point x="82" y="133"/>
      <point x="139" y="-4"/>
      <point x="325" y="-4" type="curve" smooth="yes"/>
      <point x="505" y="-4"/>
      <point x="567" y="125"/>
      <point x="567" y="270" type="curve" smooth="yes"/>
      <point x="567" y="542" type="line"/>
      <point x="535" y="542" type="line"/>
      <point x="535" y="270" type="line" smooth="yes"/>
      <point x="535" y="150"/>
      <point x="489" y="27"/>
    </contour>
  </outline>
</glyph>
<glyph name="c_t" format="1">
  <advance width="843"/>
  <outline>
    <contour>
      <point x="821" y="52" type="line"/>
      <point x="815" y="49"/>
      <point x="782" y="27"/>
      <point x="738" y="27" type="curve" smooth="yes"/>
      <point x="704" y="27"/>
      <point x="673" y="47"/>
      <point x="670" y="86" type="curve"/>
      <point x="670" y="490" type="line"/>
      <point x="794" y="490" type="line"/>
      <point x="794" y="520" type="line"/>
      <point x="670" y="520" type="line"/>
      <point x="669" y="660"/>
      <point x="671" y="751"/>
      <point x="523" y="751" type="curve" smooth="yes"/>
      <point x="434" y="751"/>
      <point x="386" y="691"/>
      <point x="386" y="616" type="curve" smooth="yes"/>
      <point x="386" y="562"/>
      <point x="415" y="517"/>
      <point x="438" y="482" type="curve"/>
      <point x="402" y="511"/>
      <point x="355" y="528"/>
      <point x="289" y="528" type="curve" smooth="yes"/>
      <point x="143" y="528"/>
      <point x="44" y="398"/>
      <point x="44" y="258" type="curve" smooth="yes"/>
      <point x="44" y="124"/>
      <point x="149" y="-10"/>
      <point x="297" y="-10" type="curve" smooth="yes"/>
      <point x="377" y="-10"/>
      <point x="475" y="33"/>
      <point x="504" y="115" type="curve"/>
      <point x="470" y="125" type="line"/>
      <point x="453" y="62"/>
      <point x="359" y="22"/>
      <point x="297" y="22" type="curve" smooth="yes"/>
      <point x="175" y="22"/>
      <point x="78" y="133"/>
      <point x="78" y="258" type="curve" smooth="yes"/>
      <point x="78" y="373"/>
      <point x="156" y="496"/>
      <point x="289" y="496" type="curve" smooth="yes"/>
      <point x="363" y="496"/>
      <point x="426" y="467"/>
      <point x="464" y="398" type="curve"/>
      <point x="496" y="410" type="line"/>
      <point x="481" y="444"/>
      <point x="411" y="545"/>
      <point x="411" y="615" type="curve" smooth="yes"/>
      <point x="411" y="675"/>
      <point x="445" y="726"/>
      <point x="518" y="726" type="curve" smooth="yes"/>
      <point x="636" y="726"/>
      <point x="636" y="671"/>
      <point x="636" y="520" type="curve"/>
      <point x="562" y="520" type="line"/>
      <point x="562" y="490" type="line"/>
      <point x="636" y="490" type="line"/>
      <point x="636" y="81" type="line" smooth="yes"/>
      <point x="636" y="27"/>
      <point x="681" y="-5"/>
      <point x="732" y="-5" type="curve" smooth="yes"/>
      <point x="787" y="-5"/>
      <point x="828" y="22"/>
      <point x="834" y="24" type="curve"/>
    </contour>
  </outline>
</glyph>
<glyph name="one.denominator" format="1">
  <advance width="262"/>
  <outline>
    <contour>
      <point x="161" y="26" type="line"/>
      <point x="161" y="394" type="line"/>
      <point x="134" y="394" type="line"/>
      <point x="132" y="391"/>
      <point x="79" y="339"/>
      <point x="35" y="339" type="curve"/>
      <point x="35" y="313" type="line"/>
      <point x="68" y="313"/>
      <point x="119" y="343"/>
      <point x="134" y="360" type="curve"/>
      <point x="134" y="26" type="line"/>
      <point x="49" y="26" type="line"/>
      <point x="49" y="0" type="line"/>
      <point x="240" y="0" type="line"/>
      <point x="240" y="26" type="line"/>
    </contour>
  </outline>
</glyph>
<glyph name="seven.lnum" format="1">
  <advance width="500"/>
  <outline>
    <contour>
      <point x="97" y="0" type="line"/>
      <point x="136" y="0" type="line"/>
      <point x="499" y="710" type="line"/>
      <point x="30" y="710" type="line"/>
      <point x="30" y="677" type="line"/>
      <point x="444" y="677" type="line"/>
    </contour>
  </outline>
</glyph>
<glyph name="six.numerator" format="1">
  <advance width="393"/>
  <outline>
    <contour>
      <point x="358" y="467" type="curve" smooth="yes"/>
      <point x="358" y="540"/>
      <point x="290" y="598"/>
      <point x="205" y="598" type="curve" smooth="yes"/>
      <point x="145" y="598"/>
      <point x="89" y="568"/>
      <point x="69" y="520" type="curve"/>
      <point x="70" y="638"/>
      <point x="124" y="705"/>
      <point x="204" y="705" type="curve" smooth="yes"/>
      <point x="255" y="705"/>
      <point x="300" y="678"/>
      <point x="317" y="640" type="curve"/>
      <point x="335" y="655" type="line"/>
      <point x="315" y="702"/>
      <point x="264" y="730"/>
      <point x="205" y="730" type="curve" smooth="yes"/>
      <point x="109" y="730"/>
      <point x="43" y="654"/>
      <point x="43" y="492" type="curve" smooth="yes"/>
      <point x="43" y="394"/>
      <point x="110" y="334"/>
      <point x="202" y="334" type="curve" smooth="yes"/>
      <point x="289" y="334"/>
      <point x="358" y="393"/>
    </contour>
    <contour>
      <point x="203" y="359" type="curve" smooth="yes"/>
      <point x="132" y="359"/>
      <point x="72" y="408"/>
      <point x="72" y="467" type="curve" smooth="yes"/>
      <point x="72" y="525"/>
      <point x="131" y="575"/>
      <point x="202" y="575" type="curve" smooth="yes"/>
      <point x="273" y="575"/>
      <point x="332" y="525"/>
      <point x="332" y="466" type="curve" smooth="yes"/>
      <point x="332" y="408"/>
      <point x="274" y="359"/>
    </contour>
  </outline>
</glyph>
<glyph name="w.alt" format="1">
  <advance width="807"/>
  <outline>
    <contour>
      <point x="594" y="0" type="line"/>
      <point x="779" y="520" type="line"/>
      <point x="743" y="520" type="line"/>
      <point x="577" y="46" type="line"/>
      <point x="421" y="520" type="line"/>
      <point x="386" y="520" type="line"/>
      <point x="230" y="46" type="line"/>
      <point x="64" y="520" type="line"/>
      <point x="28" y="520" type="line"/>
      <point x="213" y="0" type="line"/>
      <point x="246" y="0" type="line"/>
      <point x="404" y="471" type="line"/>
      <point x="561" y="0" type="line"/>
    </contour>
  </outline>
</glyph>
<glyph name="y.alt" format="1">
  <advance width="537"/>
  <outline>
    <contour>
      <point x="479" y="520" type="line"/>
      <point x="273" y="36" type="line"/>
      <point x="55" y="520" type="line"/>
      <point x="18" y="520" type="line"/>
      <point x="255" y="0" type="line"/>
      <point x="246" y="-22"/>
      <point x="168" y="-212"/>
      <point x="168" y="-213" type="curve"/>
      <point x="203" y="-213" type="line"/>
      <point x="514" y="520" type="line"/>
    </contour>
  </outline>
</glyph>
<glyph name="zero.lnum" format="1">
  <advance width="673"/>
  <outline>
    <contour>
      <point x="336" y="-10" type="curve"/>
      <point x="512" y="-7"/>
      <point x="622" y="177"/>
      <point x="622" y="350" type="curve" smooth="yes"/>
      <point x="622" y="505"/>
      <point x="525" y="710"/>
      <point x="336" y="710" type="curve" smooth="yes"/>
      <point x="160" y="710"/>
      <point x="51" y="521"/>
      <point x="51" y="350" type="curve" smooth="yes"/>
      <point x="51" y="190"/>
      <point x="148" y="-4"/>
    </contour>
    <contour>
      <point x="86" y="350" type="curve"/>
      <point x="86" y="488"/>
      <point x="169" y="677"/>
      <point x="336" y="677" type="curve" smooth="yes"/>
      <point x="492" y="677"/>
      <point x="587" y="503"/>
      <point x="587" y="350" type="curve" smooth="yes"/>
      <point x="587" y="211"/>
      <point x="503" y="23"/>
      <point x="336" y="23" type="curve" smooth="yes"/>
      <point x="176" y="23"/>
      <point x="91" y="197"/>
    </contour>
  </outline>
</glyph>
<glyph name="zero.numerator" format="1">
  <advance width="443"/>
  <outline>
    <contour>
      <point x="222" y="337" type="curve" smooth="yes"/>
      <point x="334" y="337"/>
      <point x="402" y="439"/>
      <point x="402" y="534" type="curve" smooth="yes"/>
      <point x="402" y="619"/>
      <point x="341" y="730"/>
      <point x="222" y="730" type="curve" smooth="yes"/>
      <point x="110" y="730"/>
      <point x="41" y="627"/>
      <point x="41" y="534" type="curve" smooth="yes"/>
      <point x="41" y="447"/>
      <point x="102" y="338"/>
    </contour>
    <contour>
      <point x="68" y="534" type="curve" smooth="yes"/>
      <point x="68" y="605"/>
      <point x="119" y="704"/>
      <point x="222" y="704" type="curve" smooth="yes"/>
      <point x="318" y="704"/>
      <point x="375" y="613"/>
      <point x="375" y="534" type="curve" smooth="yes"/>
      <point x="375" y="462"/>
      <point x="324" y="364"/>
      <point x="222" y="364" type="curve" smooth="yes"/>
      <point x="124" y="364"/>
      <point x="68" y="454"/>
    </contour>
  </outline>
</glyph>
